<svg width="900" height="650" xmlns="http://www.w3.org/2000/svg">
  <!-- Background -->
  <rect width="900" height="650" fill="#f8f9fa"/>
  
  <!-- Title -->
  <text x="450" y="25" text-anchor="middle" font-family="Arial, sans-serif" font-size="18" font-weight="bold">Bridge Pattern - Class Diagram</text>
  
  <!-- Device Interface (Implementor) -->
  <g id="device-interface">
    <rect x="600" y="80" width="180" height="120" fill="#e3f2fd" stroke="#1976d2" stroke-width="2"/>
    <text x="690" y="100" text-anchor="middle" font-family="Arial, sans-serif" font-size="12" font-weight="bold">«interface»</text>
    <text x="690" y="120" text-anchor="middle" font-family="Arial, sans-serif" font-size="14" font-weight="bold">Device</text>
    <line x1="600" y1="130" x2="780" y2="130" stroke="#1976d2" stroke-width="1"/>
    <text x="610" y="150" font-family="Arial, sans-serif" font-size="12">+turnOn(): void</text>
    <text x="610" y="170" font-family="Arial, sans-serif" font-size="12">+turnOff(): void</text>
    <text x="610" y="190" font-family="Arial, sans-serif" font-size="12">+setChannel(int): void</text>
  </g>
  
  <!-- TV Class (Concrete Implementor) -->
  <g id="tv-class">
    <rect x="450" y="280" width="180" height="140" fill="#fff3e0" stroke="#f57c00" stroke-width="2"/>
    <text x="540" y="300" text-anchor="middle" font-family="Arial, sans-serif" font-size="14" font-weight="bold">TV</text>
    <line x1="450" y1="310" x2="630" y2="310" stroke="#f57c00" stroke-width="1"/>
    <text x="460" y="330" font-family="Arial, sans-serif" font-size="12">-on: boolean</text>
    <text x="460" y="350" font-family="Arial, sans-serif" font-size="12">-channel: int</text>
    <line x1="450" y1="360" x2="630" y2="360" stroke="#f57c00" stroke-width="1"/>
    <text x="460" y="380" font-family="Arial, sans-serif" font-size="12">+turnOn(): void</text>
    <text x="460" y="400" font-family="Arial, sans-serif" font-size="12">+turnOff(): void</text>
    <text x="460" y="420" font-family="Arial, sans-serif" font-size="12">+setChannel(int): void</text>
  </g>
  
  <!-- Radio Class (Concrete Implementor) -->
  <g id="radio-class">
    <rect x="680" y="280" width="180" height="140" fill="#f3e5f5" stroke="#7b1fa2" stroke-width="2"/>
    <text x="770" y="300" text-anchor="middle" font-family="Arial, sans-serif" font-size="14" font-weight="bold">Radio</text>
    <line x1="680" y1="310" x2="860" y2="310" stroke="#7b1fa2" stroke-width="1"/>
    <text x="690" y="330" font-family="Arial, sans-serif" font-size="12">-on: boolean</text>
    <text x="690" y="350" font-family="Arial, sans-serif" font-size="12">-channel: int</text>
    <line x1="680" y1="360" x2="860" y2="360" stroke="#7b1fa2" stroke-width="1"/>
    <text x="690" y="380" font-family="Arial, sans-serif" font-size="12">+turnOn(): void</text>
    <text x="690" y="400" font-family="Arial, sans-serif" font-size="12">+turnOff(): void</text>
    <text x="690" y="420" font-family="Arial, sans-serif" font-size="12">+setChannel(int): void</text>
  </g>
  
  <!-- RemoteControl Abstract Class (Abstraction) -->
  <g id="remote-control">
    <rect x="80" y="80" width="220" height="140" fill="#e8f5e8" stroke="#388e3c" stroke-width="2"/>
    <text x="190" y="100" text-anchor="middle" font-family="Arial, sans-serif" font-size="12" font-weight="bold">«abstract»</text>
    <text x="190" y="120" text-anchor="middle" font-family="Arial, sans-serif" font-size="14" font-weight="bold">RemoteControl</text>
    <line x1="80" y1="130" x2="300" y2="130" stroke="#388e3c" stroke-width="1"/>
    <text x="90" y="150" font-family="Arial, sans-serif" font-size="12">#device: Device</text>
    <line x1="80" y1="160" x2="300" y2="160" stroke="#388e3c" stroke-width="1"/>
    <text x="90" y="180" font-family="Arial, sans-serif" font-size="12">+RemoteControl(Device)</text>
    <text x="90" y="200" font-family="Arial, sans-serif" font-size="12">+turnOn(): void {abstract}</text>
    <text x="90" y="220" font-family="Arial, sans-serif" font-size="12">+turnOff(): void {abstract}</text>
  </g>
  
  <!-- BasicRemoteControl Class (Refined Abstraction) -->
  <g id="basic-remote">
    <rect x="80" y="280" width="220" height="140" fill="#fce4ec" stroke="#c2185b" stroke-width="2"/>
    <text x="190" y="300" text-anchor="middle" font-family="Arial, sans-serif" font-size="14" font-weight="bold">BasicRemoteControl</text>
    <line x1="80" y1="310" x2="300" y2="310" stroke="#c2185b" stroke-width="1"/>
    <text x="90" y="340" font-family="Arial, sans-serif" font-size="12">+BasicRemoteControl(Device)</text>
    <line x1="80" y1="350" x2="300" y2="350" stroke="#c2185b" stroke-width="1"/>
    <text x="90" y="370" font-family="Arial, sans-serif" font-size="12">+turnOn(): void</text>
    <text x="90" y="390" font-family="Arial, sans-serif" font-size="12">+turnOff(): void</text>
    <text x="90" y="410" font-family="Arial, sans-serif" font-size="12">+setChannel(int): void</text>
  </g>
  
  <!-- BridgePatternDemo Class (Client) -->
  <g id="demo-class">
    <rect x="80" y="480" width="220" height="80" fill="#fff8e1" stroke="#ffa000" stroke-width="2"/>
    <text x="190" y="500" text-anchor="middle" font-family="Arial, sans-serif" font-size="14" font-weight="bold">BridgePatternDemo</text>
    <line x1="80" y1="510" x2="300" y2="510" stroke="#ffa000" stroke-width="1"/>
    <text x="90" y="530" font-family="Arial, sans-serif" font-size="12">+main(String[] args):</text>
    <text x="90" y="550" font-family="Arial, sans-serif" font-size="12">  void</text>
  </g>
  
  <!-- Arrow markers -->
  <defs>
    <marker id="implements-arrow" markerWidth="12" markerHeight="12" refX="11" refY="6" orient="auto" markerUnits="strokeWidth">
      <path d="M0,6 L6,0 L12,6 L6,12 z" fill="none" stroke="#333" stroke-width="1"/>
    </marker>
    <marker id="extends-arrow" markerWidth="12" markerHeight="12" refX="11" refY="6" orient="auto" markerUnits="strokeWidth">
      <path d="M0,6 L6,0 L12,6 L6,12 z" fill="none" stroke="#333" stroke-width="1"/>
    </marker>
    <marker id="composition-arrow" markerWidth="12" markerHeight="12" refX="11" refY="6" orient="auto" markerUnits="strokeWidth">
      <path d="M0,6 L6,0 L12,6 L6,12 z" fill="#333" stroke="#333" stroke-width="1"/>
    </marker>
    <marker id="uses-arrow" markerWidth="10" markerHeight="10" refX="9" refY="3" orient="auto" markerUnits="strokeWidth">
      <path d="M0,0 L0,6 L9,3 z" fill="none" stroke="#666" stroke-width="1"/>
    </marker>
  </defs>
  
  <!-- Inheritance: BasicRemoteControl extends RemoteControl -->
  <line x1="190" y1="280" x2="190" y2="220" stroke="#333" stroke-width="2" marker-end="url(#extends-arrow)"/>
  <text x="200" y="250" font-family="Arial, sans-serif" font-size="10" fill="#666">extends</text>
  
  <!-- Implements: TV implements Device -->
  <line x1="540" y1="280" x2="660" y2="200" stroke="#333" stroke-width="1" stroke-dasharray="5,5" marker-end="url(#implements-arrow)"/>
  <text x="570" y="240" font-family="Arial, sans-serif" font-size="10" fill="#666">implements</text>
  
  <!-- Implements: Radio implements Device -->
  <line x1="770" y1="280" x2="720" y2="200" stroke="#333" stroke-width="1" stroke-dasharray="5,5" marker-end="url(#implements-arrow)"/>
  <text x="740" y="240" font-family="Arial, sans-serif" font-size="10" fill="#666">implements</text>
  
  <!-- Composition: RemoteControl has Device (Bridge relationship) -->
  <line x1="300" y1="140" x2="600" y2="140" stroke="#333" stroke-width="2" marker-end="url(#composition-arrow)"/>
  <circle cx="300" cy="140" r="3" fill="#333"/>
  <text x="450" y="130" text-anchor="middle" font-family="Arial, sans-serif" font-size="11" font-weight="bold" fill="#d32f2f">BRIDGE</text>
  <text x="450" y="160" text-anchor="middle" font-family="Arial, sans-serif" font-size="10" fill="#666">device</text>
  
  <!-- Uses: BridgePatternDemo uses BasicRemoteControl -->
  <line x1="190" y1="480" x2="190" y2="420" stroke="#666" stroke-width="1" stroke-dasharray="3,3" marker-end="url(#uses-arrow)"/>
  <text x="210" y="450" font-family="Arial, sans-serif" font-size="10" fill="#666">uses</text>
  
  <!-- Uses: BridgePatternDemo uses TV -->
  <line x1="300" y1="520" x2="450" y2="350" stroke="#666" stroke-width="1" stroke-dasharray="3,3" marker-end="url(#uses-arrow)"/>
  <text x="350" y="430" font-family="Arial, sans-serif" font-size="10" fill="#666">uses</text>
  
  <!-- Uses: BridgePatternDemo uses Radio -->
  <line x1="300" y1="540" x2="680" y2="370" stroke="#666" stroke-width="1" stroke-dasharray="3,3" marker-end="url(#uses-arrow)"/>
  <text x="480" y="460" font-family="Arial, sans-serif" font-size="10" fill="#666">uses</text>
  
  <!-- Pattern Structure Labels -->
  <g id="pattern-labels">
    <rect x="50" y="35" width="150" height="25" fill="#e8f5e8" stroke="#4caf50" stroke-width="1"/>
    <text x="125" y="52" text-anchor="middle" font-family="Arial, sans-serif" font-size="11" font-weight="bold">ABSTRACTION SIDE</text>
    
    <rect x="570" y="35" width="150" height="25" fill="#e3f2fd" stroke="#2196f3" stroke-width="1"/>
    <text x="645" y="52" text-anchor="middle" font-family="Arial, sans-serif" font-size="11" font-weight="bold">IMPLEMENTATION SIDE</text>
  </g>
  
  <!-- Legend -->
  <g id="legend">
    <rect x="350" y="480" width="500" height="120" fill="#f5f5f5" stroke="#ccc" stroke-width="1"/>
    <text x="360" y="500" font-family="Arial, sans-serif" font-size="12" font-weight="bold">Legend:</text>
    
    <!-- Solid line with hollow arrow -->
    <line x1="360" y1="515" x2="390" y2="515" stroke="#333" stroke-width="2"/>
    <path d="M390,511 L390,519 L400,515 z" fill="none" stroke="#333" stroke-width="1"/>
    <text x="405" y="520" font-family="Arial, sans-serif" font-size="10">extends (inheritance)</text>
    
    <!-- Dashed line with hollow arrow -->
    <line x1="360" y1="535" x2="390" y2="535" stroke="#333" stroke-width="1" stroke-dasharray="5,5"/>
    <path d="M390,531 L390,539 L400,535 z" fill="none" stroke="#333" stroke-width="1"/>
    <text x="405" y="540" font-family="Arial, sans-serif" font-size="10">implements</text>
    
    <!-- Solid line with filled diamond -->
    <line x1="360" y1="555" x2="390" y2="555" stroke="#333" stroke-width="2"/>
    <path d="M390,551 L396,555 L390,559 L384,555 z" fill="#333" stroke="#333" stroke-width="1"/>
    <text x="405" y="560" font-family="Arial, sans-serif" font-size="10">composition (has-a)</text>
    
    <!-- Dotted line with arrow -->
    <line x1="360" y1="575" x2="390" y2="575" stroke="#666" stroke-width="1" stroke-dasharray="3,3"/>
    <path d="M390,572 L390,578 L397,575 z" fill="none" stroke="#666" stroke-width="1"/>
    <text x="405" y="580" font-family="Arial, sans-serif" font-size="10">dependency (uses)</text>
    
    <!-- Visibility markers -->
    <text x="570" y="520" font-family="Arial, sans-serif" font-size="10">+ public</text>
    <text x="570" y="540" font-family="Arial, sans-serif" font-size="10"># protected</text>
    <text x="570" y="560" font-family="Arial, sans-serif" font-size="10">- private</text>
    
    <!-- Bridge explanation -->
    <text x="360" y="595" font-family="Arial, sans-serif" font-size="10" font-weight="bold">Bridge:</text>
    <text x="405" y="595" font-family="Arial, sans-serif" font-size="10">The composition relationship that separates abstraction from implementation</text>
  </g>
</svg>