<svg width="900" height="700" xmlns="http://www.w3.org/2000/svg" style="background-color: white;">
  <defs>
    <marker id="arrowhead" markerWidth="10" markerHeight="7" 
     refX="0" refY="3.5" orient="auto">
      <polygon points="0 0, 10 3.5, 0 7" fill="black" />
    </marker>
    <marker id="selfcall" markerWidth="8" markerHeight="8" 
     refX="4" refY="4" orient="auto">
      <circle cx="4" cy="4" r="3" fill="white" stroke="black" stroke-width="1"/>
    </marker>
  </defs>
  
  <!-- Title -->
  <text x="450" y="30" text-anchor="middle" font-family="Arial, sans-serif" font-size="18" font-weight="bold">Facade Pattern - Computer System Sequence Diagram</text>
  
  <!-- Actors/Objects -->
  <g id="actors">
    <!-- Main -->
    <rect x="50" y="60" width="80" height="40" fill="#f0f8e6" stroke="#228b22" stroke-width="2"/>
    <text x="90" y="85" text-anchor="middle" font-family="Arial, sans-serif" font-size="12" font-weight="bold">Main</text>
    
    <!-- computer_facade -->
    <rect x="200" y="60" width="120" height="40" fill="#fff2e6" stroke="#d2691e" stroke-width="2"/>
    <text x="260" y="85" text-anchor="middle" font-family="Arial, sans-serif" font-size="12" font-weight="bold">computer_facade</text>
    
    <!-- CPU -->
    <rect x="390" y="60" width="80" height="40" fill="#e6f3ff" stroke="#2c5aa0" stroke-width="2"/>
    <text x="430" y="85" text-anchor="middle" font-family="Arial, sans-serif" font-size="12" font-weight="bold">CPU</text>
    
    <!-- Memory -->
    <rect x="540" y="60" width="80" height="40" fill="#e6f3ff" stroke="#2c5aa0" stroke-width="2"/>
    <text x="580" y="85" text-anchor="middle" font-family="Arial, sans-serif" font-size="12" font-weight="bold">Memory</text>
    
    <!-- HardDrive -->
    <rect x="690" y="60" width="80" height="40" fill="#e6f3ff" stroke="#2c5aa0" stroke-width="2"/>
    <text x="730" y="85" text-anchor="middle" font-family="Arial, sans-serif" font-size="12" font-weight="bold">HardDrive</text>
  </g>
  
  <!-- Lifelines -->
  <g id="lifelines" stroke="#666" stroke-width="2" stroke-dasharray="5,5">
    <line x1="90" y1="100" x2="90" y2="650"/>
    <line x1="260" y1="100" x2="260" y2="650"/>
    <line x1="430" y1="100" x2="430" y2="650"/>
    <line x1="580" y1="100" x2="580" y2="650"/>
    <line x1="730" y1="100" x2="730" y2="650"/>
  </g>
  
  <!-- Activation boxes -->
  <g id="activations" fill="#ffffcc" stroke="black" stroke-width="1">
    <rect x="85" y="120" width="10" height="480"/>
    <rect x="255" y="140" width="10" height="200"/>
    <rect x="255" y="380" width="10" height="200"/>
    <rect x="425" y="160" width="10" height="20"/>
    <rect x="575" y="180" width="10" height="20"/>
    <rect x="725" y="200" width="10" height="20"/>
    <rect x="425" y="240" width="10" height="20"/>
    <rect x="425" y="400" width="10" height="20"/>
    <rect x="575" y="440" width="10" height="20"/>
    <rect x="725" y="480" width="10" height="20"/>
  </g>
  
  <!-- Messages -->
  <g id="messages" font-family="Arial, sans-serif" font-size="11">
    
    <!-- Constructor call -->
    <line x1="95" y1="130" x2="255" y2="130" stroke="black" stroke-width="2" marker-end="url(#arrowhead)"/>
    <text x="175" y="125" text-anchor="middle">new computer_facade()</text>
    
    <!-- Start Computer sequence -->
    <line x1="95" y1="150" x2="255" y2="150" stroke="black" stroke-width="2" marker-end="url(#arrowhead)"/>
    <text x="175" y="145" text-anchor="middle">startComputer()</text>
    
    <line x1="265" y1="170" x2="425" y2="170" stroke="black" stroke-width="2" marker-end="url(#arrowhead)"/>
    <text x="345" y="165" text-anchor="middle">start()</text>
    
    <line x1="265" y1="190" x2="575" y2="190" stroke="black" stroke-width="2" marker-end="url(#arrowhead)"/>
    <text x="420" y="185" text-anchor="middle">load()</text>
    
    <line x1="265" y1="210" x2="725" y2="210" stroke="black" stroke-width="2" marker-end="url(#arrowhead)"/>
    <text x="495" y="205" text-anchor="middle">read()</text>
    
    <line x1="265" y1="250" x2="425" y2="250" stroke="black" stroke-width="2" marker-end="url(#arrowhead)"/>
    <text x="345" y="245" text-anchor="middle">execute()</text>
    
    <!-- Return from startComputer -->
    <line x1="255" y1="280" x2="95" y2="280" stroke="black" stroke-width="2" stroke-dasharray="5,5" marker-end="url(#arrowhead)"/>
    
    <!-- Print statements -->
    <text x="50" y="310" font-style="italic" fill="#666">System.out.println("Starting the computer...")</text>
    <text x="50" y="330" font-style="italic" fill="#666">System.out.println("CPU started")</text>
    <text x="50" y="350" font-style="italic" fill="#666">System.out.println("Memory loaded")</text>
    <text x="450" y="230" font-style="italic" fill="#666">System.out.println("Hard Drive reading")</text>
    <text x="450" y="270" font-style="italic" fill="#666">System.out.println("CPU executing")</text>
    
    <!-- Stop Computer sequence -->
    <line x1="95" y1="390" x2="255" y2="390" stroke="black" stroke-width="2" marker-end="url(#arrowhead)"/>
    <text x="175" y="385" text-anchor="middle">stopComputer()</text>
    
    <line x1="265" y1="410" x2="425" y2="410" stroke="black" stroke-width="2" marker-end="url(#arrowhead)"/>
    <text x="345" y="405" text-anchor="middle">stop()</text>
    
    <line x1="265" y1="450" x2="575" y2="450" stroke="black" stroke-width="2" marker-end="url(#arrowhead)"/>
    <text x="420" y="445" text-anchor="middle">clear()</text>
    
    <line x1="265" y1="490" x2="725" y2="490" stroke="black" stroke-width="2" marker-end="url(#arrowhead)"/>
    <text x="495" y="485" text-anchor="middle">write()</text>
    
    <!-- Return from stopComputer -->
    <line x1="255" y1="520" x2="95" y2="520" stroke="black" stroke-width="2" stroke-dasharray="5,5" marker-end="url(#arrowhead)"/>
    
    <!-- Final print statements -->
    <text x="50" y="550" font-style="italic" fill="#666">System.out.println("Stopping the computer...")</text>
    <text x="50" y="570" font-style="italic" fill="#666">System.out.println("CPU stopped")</text>
    <text x="50" y="590" font-style="italic" fill="#666">System.out.println("Memory cleared")</text>
    <text x="450" y="510" font-style="italic" fill="#666">System.out.println("Hard Drive writing")</text>
    <text x="50" y="610" font-style="italic" fill="#666">System.out.println("Computer operations completed.")</text>
  </g>
  
  <!-- Sequence numbers -->
  <g id="sequence-numbers" font-family="Arial, sans-serif" font-size="10" fill="blue">
    <circle cx="120" cy="130" r="8" fill="lightblue" stroke="blue"/>
    <text x="120" y="135" text-anchor="middle">1</text>
    
    <circle cx="120" cy="150" r="8" fill="lightblue" stroke="blue"/>
    <text x="120" y="155" text-anchor="middle">2</text>
    
    <circle cx="300" cy="170" r="8" fill="lightblue" stroke="blue"/>
    <text x="300" y="175" text-anchor="middle">3</text>
    
    <circle cx="360" cy="190" r="8" fill="lightblue" stroke="blue"/>
    <text x="360" y="195" text-anchor="middle">4</text>
    
    <circle cx="420" cy="210" r="8" fill="lightblue" stroke="blue"/>
    <text x="420" y="215" text-anchor="middle">5</text>
    
    <circle cx="300" cy="250" r="8" fill="lightblue" stroke="blue"/>
    <text x="300" y="255" text-anchor="middle">6</text>
    
    <circle cx="120" cy="390" r="8" fill="lightblue" stroke="blue"/>
    <text x="120" y="395" text-anchor="middle">7</text>
    
    <circle cx="300" cy="410" r="8" fill="lightblue" stroke="blue"/>
    <text x="300" y="415" text-anchor="middle">8</text>
    
    <circle cx="360" cy="450" r="8" fill="lightblue" stroke="blue"/>
    <text x="360" y="455" text-anchor="middle">9</text>
    
    <circle cx="420" cy="490" r="8" fill="lightblue" stroke="blue"/>
    <text x="420" y="495" text-anchor="middle">10</text>
  </g>
  
  <!-- Legend -->
  <g id="legend">
    <rect x="650" y="550" width="220" height="100" fill="none" stroke="#666" stroke-width="1"/>
    <text x="660" y="570" font-family="Arial, sans-serif" font-size="12" font-weight="bold">Legend:</text>
    <line x1="660" y1="580" x2="690" y2="580" stroke="black" stroke-width="2" marker-end="url(#arrowhead)"/>
    <text x="700" y="585" font-family="Arial, sans-serif" font-size="10">Synchronous call</text>
    <line x1="660" y1="595" x2="690" y2="595" stroke="black" stroke-width="2" stroke-dasharray="5,5" marker-end="url(#arrowhead)"/>
    <text x="700" y="600" font-family="Arial, sans-serif" font-size="10">Return</text>
    <rect x="660" y="610" width="10" height="15" fill="#ffffcc" stroke="black" stroke-width="1"/>
    <text x="680" y="622" font-family="Arial, sans-serif" font-size="10">Activation</text>
    <text x="700" y="638" font-family="Arial, sans-serif" font-size="9" font-style="italic" fill="#666">Console output</text>
  </g>
</svg>