<svg width="800" height="600" xmlns="http://www.w3.org/2000/svg" style="background-color: white;">
  <defs>
    <marker id="arrowhead" markerWidth="10" markerHeight="7" 
     refX="0" refY="3.5" orient="auto">
      <polygon points="0 0, 10 3.5, 0 7" fill="black" />
    </marker>
    <marker id="composition" markerWidth="12" markerHeight="8" 
     refX="0" refY="4" orient="auto">
      <polygon points="0 4, 6 0, 12 4, 6 8" fill="black" />
    </marker>
  </defs>
  
  <!-- CPU Class -->
  <g id="cpu-class">
    <rect x="50" y="80" width="150" height="120" fill="#e6f3ff" stroke="#2c5aa0" stroke-width="2"/>
    <rect x="50" y="80" width="150" height="30" fill="#4a90e2" stroke="#2c5aa0" stroke-width="2"/>
    <text x="125" y="100" text-anchor="middle" font-family="Arial, sans-serif" font-size="14" font-weight="bold" fill="white">CPU</text>
    <line x1="50" y1="110" x2="200" y2="110" stroke="#2c5aa0" stroke-width="1"/>
    <text x="60" y="130" font-family="Arial, sans-serif" font-size="12">+ start(): void</text>
    <text x="60" y="150" font-family="Arial, sans-serif" font-size="12">+ execute(): void</text>
    <text x="60" y="170" font-family="Arial, sans-serif" font-size="12">+ stop(): void</text>
  </g>
  
  <!-- Memory Class -->
  <g id="memory-class">
    <rect x="250" y="80" width="150" height="100" fill="#e6f3ff" stroke="#2c5aa0" stroke-width="2"/>
    <rect x="250" y="80" width="150" height="30" fill="#4a90e2" stroke="#2c5aa0" stroke-width="2"/>
    <text x="325" y="100" text-anchor="middle" font-family="Arial, sans-serif" font-size="14" font-weight="bold" fill="white">Memory</text>
    <line x1="250" y1="110" x2="400" y2="110" stroke="#2c5aa0" stroke-width="1"/>
    <text x="260" y="130" font-family="Arial, sans-serif" font-size="12">+ load(): void</text>
    <text x="260" y="150" font-family="Arial, sans-serif" font-size="12">+ clear(): void</text>
  </g>
  
  <!-- HardDrive Class -->
  <g id="harddrive-class">
    <rect x="450" y="80" width="150" height="100" fill="#e6f3ff" stroke="#2c5aa0" stroke-width="2"/>
    <rect x="450" y="80" width="150" height="30" fill="#4a90e2" stroke="#2c5aa0" stroke-width="2"/>
    <text x="525" y="100" text-anchor="middle" font-family="Arial, sans-serif" font-size="14" font-weight="bold" fill="white">HardDrive</text>
    <line x1="450" y1="110" x2="600" y2="110" stroke="#2c5aa0" stroke-width="1"/>
    <text x="460" y="130" font-family="Arial, sans-serif" font-size="12">+ read(): void</text>
    <text x="460" y="150" font-family="Arial, sans-serif" font-size="12">+ write(): void</text>
  </g>
  
  <!-- computer_facade Class -->
  <g id="facade-class">
    <rect x="200" y="280" width="250" height="180" fill="#fff2e6" stroke="#d2691e" stroke-width="2"/>
    <rect x="200" y="280" width="250" height="30" fill="#ff8c42" stroke="#d2691e" stroke-width="2"/>
    <text x="325" y="300" text-anchor="middle" font-family="Arial, sans-serif" font-size="14" font-weight="bold" fill="white">computer_facade</text>
    <line x1="200" y1="310" x2="450" y2="310" stroke="#d2691e" stroke-width="1"/>
    <text x="210" y="330" font-family="Arial, sans-serif" font-size="12">- cpu: CPU</text>
    <text x="210" y="350" font-family="Arial, sans-serif" font-size="12">- memory: Memory</text>
    <text x="210" y="370" font-family="Arial, sans-serif" font-size="12">- hardDrive: HardDrive</text>
    <line x1="200" y1="380" x2="450" y2="380" stroke="#d2691e" stroke-width="1"/>
    <text x="210" y="400" font-family="Arial, sans-serif" font-size="12">+ computer_facade()</text>
    <text x="210" y="420" font-family="Arial, sans-serif" font-size="12">+ startComputer(): void</text>
    <text x="210" y="440" font-family="Arial, sans-serif" font-size="12">+ stopComputer(): void</text>
  </g>
  
  <!-- Facade (Main) Class -->
  <g id="main-class">
    <rect x="520" y="300" width="200" height="100" fill="#f0f8e6" stroke="#228b22" stroke-width="2"/>
    <rect x="520" y="300" width="200" height="30" fill="#32cd32" stroke="#228b22" stroke-width="2"/>
    <text x="620" y="320" text-anchor="middle" font-family="Arial, sans-serif" font-size="14" font-weight="bold" fill="white">Facade</text>
    <line x1="520" y1="330" x2="720" y2="330" stroke="#228b22" stroke-width="1"/>
    <text x="530" y="350" font-family="Arial, sans-serif" font-size="12">+ main(String[]): void</text>
    <text x="530" y="370" font-family="Arial, sans-serif" font-size="12">&lt;&lt;static&gt;&gt;</text>
  </g>
  
  <!-- Composition relationships from facade to subsystem classes -->
  <line x1="250" y1="280" x2="125" y2="200" stroke="black" stroke-width="2" marker-end="url(#composition)"/>
  <line x1="325" y1="280" x2="325" y2="180" stroke="black" stroke-width="2" marker-end="url(#composition)"/>
  <line x1="400" y1="280" x2="525" y2="180" stroke="black" stroke-width="2" marker-end="url(#composition)"/>
  
  <!-- Uses relationship from main to facade -->
  <line x1="520" y1="350" x2="450" y2="350" stroke="black" stroke-width="2" stroke-dasharray="5,5" marker-end="url(#arrowhead)"/>
  
  <!-- Labels for relationships -->
  <text x="180" y="240" font-family="Arial, sans-serif" font-size="10" fill="#666">1</text>
  <text x="340" y="240" font-family="Arial, sans-serif" font-size="10" fill="#666">1</text>
  <text x="480" y="240" font-family="Arial, sans-serif" font-size="10" fill="#666">1</text>
  <text x="480" y="340" font-family="Arial, sans-serif" font-size="10" fill="#666">uses</text>
  
  <!-- Title -->
  <text x="400" y="30" text-anchor="middle" font-family="Arial, sans-serif" font-size="18" font-weight="bold">Facade Pattern - Computer System</text>
  
  <!-- Legend -->
  <g id="legend">
    <rect x="50" y="500" width="300" height="80" fill="none" stroke="#666" stroke-width="1"/>
    <text x="60" y="520" font-family="Arial, sans-serif" font-size="12" font-weight="bold">Legend:</text>
    <line x1="60" y1="535" x2="90" y2="535" stroke="black" stroke-width="2" marker-end="url(#composition)"/>
    <text x="100" y="540" font-family="Arial, sans-serif" font-size="10">Composition (has-a)</text>
    <line x1="60" y1="550" x2="90" y2="550" stroke="black" stroke-width="2" stroke-dasharray="5,5" marker-end="url(#arrowhead)"/>
    <text x="100" y="555" font-family="Arial, sans-serif" font-size="10">Uses/Dependency</text>
  </g>
</svg>