<svg width="900" height="700" xmlns="http://www.w3.org/2000/svg">
  <!-- Background -->
  <rect width="900" height="700" fill="#f8f9fa"/>
  
  <!-- Title -->
  <text x="450" y="25" text-anchor="middle" font-family="Arial, sans-serif" font-size="16" font-weight="bold">Chain of Responsibility - Sequence Diagram</text>
  
  <!-- Actors/Objects -->
  <rect x="50" y="50" width="120" height="40" fill="#e3f2fd" stroke="#1976d2" stroke-width="2" rx="5"/>
  <text x="110" y="75" text-anchor="middle" font-family="Arial, sans-serif" font-size="12" font-weight="bold">Client</text>
  
  <rect x="220" y="50" width="140" height="40" fill="#fff3e0" stroke="#f57c00" stroke-width="2" rx="5"/>
  <text x="290" y="75" text-anchor="middle" font-family="Arial, sans-serif" font-size="12" font-weight="bold">LowLevelHandler</text>
  
  <rect x="410" y="50" width="150" height="40" fill="#fff3e0" stroke="#f57c00" stroke-width="2" rx="5"/>
  <text x="485" y="75" text-anchor="middle" font-family="Arial, sans-serif" font-size="12" font-weight="bold">MediumLevelHandler</text>
  
  <rect x="610" y="50" width="140" height="40" fill="#fff3e0" stroke="#f57c00" stroke-width="2" rx="5"/>
  <text x="680" y="75" text-anchor="middle" font-family="Arial, sans-serif" font-size="12" font-weight="bold">HighLevelHandler</text>
  
  <!-- Lifelines -->
  <line x1="110" y1="90" x2="110" y2="650" stroke="#666" stroke-width="2" stroke-dasharray="5,5"/>
  <line x1="290" y1="90" x2="290" y2="650" stroke="#666" stroke-width="2" stroke-dasharray="5,5"/>
  <line x1="485" y1="90" x2="485" y2="650" stroke="#666" stroke-width="2" stroke-dasharray="5,5"/>
  <line x1="680" y1="90" x2="680" y2="650" stroke="#666" stroke-width="2" stroke-dasharray="5,5"/>
  
  <!-- Activation boxes -->
  <rect x="105" y="110" width="10" height="520" fill="#e3f2fd" stroke="#1976d2" stroke-width="1"/>
  <rect x="285" y="140" width="10" height="60" fill="#fff3e0" stroke="#f57c00" stroke-width="1"/>
  <rect x="285" y="240" width="10" height="60" fill="#fff3e0" stroke="#f57c00" stroke-width="1"/>
  <rect x="480" y="270" width="10" height="60" fill="#fff3e0" stroke="#f57c00" stroke-width="1"/>
  <rect x="285" y="370" width="10" height="60" fill="#fff3e0" stroke="#f57c00" stroke-width="1"/>
  <rect x="480" y="400" width="10" height="60" fill="#fff3e0" stroke="#f57c00" stroke-width="1"/>
  <rect x="675" y="430" width="10" height="60" fill="#fff3e0" stroke="#f57c00" stroke-width="1"/>
  
  <!-- Messages -->
  
  <!-- Request 1: "low" -->
  <text x="20" y="135" font-family="Arial, sans-serif" font-size="11" font-weight="bold" fill="#2e7d32">Request 1: "low"</text>
  
  <!-- handleRequest("low") -->
  <line x1="115" y1="150" x2="285" y2="150" stroke="#000" stroke-width="2" marker-end="url(#arrowhead)"/>
  <text x="200" y="145" text-anchor="middle" font-family="Arial, sans-serif" font-size="10">handleRequest("low")</text>
  
  <!-- Process and return -->
  <rect x="300" y="160" width="200" height="30" fill="#c8e6c9" stroke="#4caf50" stroke-width="1" rx="3"/>
  <text x="400" y="180" text-anchor="middle" font-family="Arial, sans-serif" font-size="10">Process "low" request</text>
  
  <!-- Request 2: "medium" -->
  <text x="20" y="235" font-family="Arial, sans-serif" font-size="11" font-weight="bold" fill="#2e7d32">Request 2: "medium"</text>
  
  <!-- handleRequest("medium") -->
  <line x1="115" y1="250" x2="285" y2="250" stroke="#000" stroke-width="2" marker-end="url(#arrowhead)"/>
  <text x="200" y="245" text-anchor="middle" font-family="Arial, sans-serif" font-size="10">handleRequest("medium")</text>
  
  <!-- Forward to next handler -->
  <line x1="295" y1="280" x2="480" y2="280" stroke="#000" stroke-width="2" marker-end="url(#arrowhead)"/>
  <text x="387" y="275" text-anchor="middle" font-family="Arial, sans-serif" font-size="10">handleRequest("medium")</text>
  
  <!-- Process and return -->
  <rect x="500" y="290" width="200" height="30" fill="#c8e6c9" stroke="#4caf50" stroke-width="1" rx="3"/>
  <text x="600" y="310" text-anchor="middle" font-family="Arial, sans-serif" font-size="10">Process "medium" request</text>
  
  <!-- Request 3: "high" -->
  <text x="20" y="365" font-family="Arial, sans-serif" font-size="11" font-weight="bold" fill="#2e7d32">Request 3: "high"</text>
  
  <!-- handleRequest("high") -->
  <line x1="115" y1="380" x2="285" y2="380" stroke="#000" stroke-width="2" marker-end="url(#arrowhead)"/>
  <text x="200" y="375" text-anchor="middle" font-family="Arial, sans-serif" font-size="10">handleRequest("high")</text>
  
  <!-- Forward to MediumLevelHandler -->
  <line x1="295" y1="410" x2="480" y2="410" stroke="#000" stroke-width="2" marker-end="url(#arrowhead)"/>
  <text x="387" y="405" text-anchor="middle" font-family="Arial, sans-serif" font-size="10">handleRequest("high")</text>
  
  <!-- Forward to HighLevelHandler -->
  <line x1="490" y1="440" x2="675" y2="440" stroke="#000" stroke-width="2" marker-end="url(#arrowhead)"/>
  <text x="582" y="435" text-anchor="middle" font-family="Arial, sans-serif" font-size="10">handleRequest("high")</text>
  
  <!-- Process and return -->
  <rect x="700" y="450" width="180" height="30" fill="#c8e6c9" stroke="#4caf50" stroke-width="1" rx="3"/>
  <text x="790" y="470" text-anchor="middle" font-family="Arial, sans-serif" font-size="10">Process "high" request</text>
  
  <!-- Notes -->
  <rect x="50" y="520" width="800" height="100" fill="#fff9c4" stroke="#f9a825" stroke-width="1" rx="5"/>
  <text x="70" y="540" font-family="Arial, sans-serif" font-size="12" font-weight="bold">Flow Description:</text>
  <text x="70" y="560" font-family="Arial, sans-serif" font-size="11">1. Request "low" → LowLevelHandler processes it directly</text>
  <text x="70" y="575" font-family="Arial, sans-serif" font-size="11">2. Request "medium" → LowLevelHandler forwards to MediumLevelHandler, which processes it</text>
  <text x="70" y="590" font-family="Arial, sans-serif" font-size="11">3. Request "high" → LowLevelHandler → MediumLevelHandler → HighLevelHandler processes it</text>
  <text x="70" y="605" font-family="Arial, sans-serif" font-size="11">Each handler checks if it can handle the request, otherwise passes it to the next handler in the chain.</text>
  
  <!-- Arrow marker definition -->
  <defs>
    <marker id="arrowhead" markerWidth="10" markerHeight="7" refX="9" refY="3.5" orient="auto">
      <polygon points="0 0, 10 3.5, 0 7" fill="#000"/>
    </marker>
  </defs>
  
  <!-- Legend -->
  <rect x="750" y="110" width="130" height="80" fill="#f5f5f5" stroke="#666" stroke-width="1" rx="3"/>
  <text x="815" y="130" text-anchor="middle" font-family="Arial, sans-serif" font-size="11" font-weight="bold">Legend</text>
  <line x1="760" y1="140" x2="790" y2="140" stroke="#000" stroke-width="2" marker-end="url(#arrowhead)"/>
  <text x="795" y="145" font-family="Arial, sans-serif" font-size="9">Method Call</text>
  <rect x="760" y="155" width="20" height="10" fill="#c8e6c9" stroke="#4caf50" stroke-width="1"/>
  <text x="785" y="163" font-family="Arial, sans-serif" font-size="9">Processing</text>
  <rect x="760" y="170" width="10" height="15" fill="#fff3e0" stroke="#f57c00" stroke-width="1"/>
  <text x="775" y="180" font-family="Arial, sans-serif" font-size="9">Active Object</text>
</svg>