<svg width="800" height="600" xmlns="http://www.w3.org/2000/svg">
  <!-- Background -->
  <rect width="800" height="600" fill="#f8f9fa"/>
  
  <!-- Handler Interface -->
  <rect x="320" y="30" width="160" height="80" fill="#e3f2fd" stroke="#1976d2" stroke-width="2"/>
  <text x="400" y="50" text-anchor="middle" font-family="Arial, sans-serif" font-size="12" font-weight="bold">Handler</text>
  <text x="400" y="65" text-anchor="middle" font-family="Arial, sans-serif" font-size="10" font-style="italic">&lt;&lt;interface&gt;&gt;</text>
  <line x1="325" y1="70" x2="475" y2="70" stroke="#1976d2" stroke-width="1"/>
  <text x="330" y="85" font-family="Arial, sans-serif" font-size="10">+setNext(Handler): void</text>
  <text x="330" y="100" font-family="Arial, sans-serif" font-size="10">+handleRequest(String): void</text>
  
  <!-- LowLevelHandler -->
  <rect x="50" y="200" width="180" height="100" fill="#fff3e0" stroke="#f57c00" stroke-width="2"/>
  <text x="140" y="220" text-anchor="middle" font-family="Arial, sans-serif" font-size="12" font-weight="bold">LowLevelHandler</text>
  <line x1="55" y1="225" x2="225" y2="225" stroke="#f57c00" stroke-width="1"/>
  <text x="60" y="240" font-family="Arial, sans-serif" font-size="10">-nextHandler: Handler</text>
  <line x1="55" y1="245" x2="225" y2="245" stroke="#f57c00" stroke-width="1"/>
  <text x="60" y="260" font-family="Arial, sans-serif" font-size="10">+setNext(Handler): void</text>
  <text x="60" y="275" font-family="Arial, sans-serif" font-size="10">+handleRequest(String): void</text>
  
  <!-- MediumLevelHandler -->
  <rect x="310" y="200" width="180" height="100" fill="#fff3e0" stroke="#f57c00" stroke-width="2"/>
  <text x="400" y="220" text-anchor="middle" font-family="Arial, sans-serif" font-size="12" font-weight="bold">MediumLevelHandler</text>
  <line x1="315" y1="225" x2="485" y2="225" stroke="#f57c00" stroke-width="1"/>
  <text x="320" y="240" font-family="Arial, sans-serif" font-size="10">-nextHandler: Handler</text>
  <line x1="315" y1="245" x2="485" y2="245" stroke="#f57c00" stroke-width="1"/>
  <text x="320" y="260" font-family="Arial, sans-serif" font-size="10">+setNext(Handler): void</text>
  <text x="320" y="275" font-family="Arial, sans-serif" font-size="10">+handleRequest(String): void</text>
  
  <!-- HighLevelHandler -->
  <rect x="570" y="200" width="180" height="100" fill="#fff3e0" stroke="#f57c00" stroke-width="2"/>
  <text x="660" y="220" text-anchor="middle" font-family="Arial, sans-serif" font-size="12" font-weight="bold">HighLevelHandler</text>
  <line x1="575" y1="225" x2="745" y2="225" stroke="#f57c00" stroke-width="1"/>
  <text x="580" y="240" font-family="Arial, sans-serif" font-size="10">-nextHandler: Handler</text>
  <line x1="575" y1="245" x2="745" y2="245" stroke="#f57c00" stroke-width="1"/>
  <text x="580" y="260" font-family="Arial, sans-serif" font-size="10">+setNext(Handler): void</text>
  <text x="580" y="275" font-family="Arial, sans-serif" font-size="10">+handleRequest(String): void</text>
  
  <!-- ChainOfResponsibilityEx -->
  <rect x="300" y="400" width="200" height="60" fill="#f3e5f5" stroke="#7b1fa2" stroke-width="2"/>
  <text x="400" y="420" text-anchor="middle" font-family="Arial, sans-serif" font-size="12" font-weight="bold">ChainOfResponsibilityEx</text>
  <line x1="305" y1="425" x2="495" y2="425" stroke="#7b1fa2" stroke-width="1"/>
  <text x="310" y="440" font-family="Arial, sans-serif" font-size="10">+main(String[]): void</text>
  
  <!-- Inheritance arrows (implements) -->
  <!-- LowLevelHandler implements Handler -->
  <line x1="140" y1="200" x2="140" y2="150" stroke="#000" stroke-width="1" stroke-dasharray="5,5"/>
  <line x1="140" y1="150" x2="380" y2="150" stroke="#000" stroke-width="1" stroke-dasharray="5,5"/>
  <line x1="380" y1="150" x2="380" y2="110" stroke="#000" stroke-width="1" stroke-dasharray="5,5"/>
  <polygon points="380,110 375,120 385,120" fill="white" stroke="#000" stroke-width="1"/>
  
  <!-- MediumLevelHandler implements Handler -->
  <line x1="400" y1="200" x2="400" y2="110" stroke="#000" stroke-width="1" stroke-dasharray="5,5"/>
  <polygon points="400,110 395,120 405,120" fill="white" stroke="#000" stroke-width="1"/>
  
  <!-- HighLevelHandler implements Handler -->
  <line x1="660" y1="200" x2="660" y2="150" stroke="#000" stroke-width="1" stroke-dasharray="5,5"/>
  <line x1="660" y1="150" x2="420" y2="150" stroke="#000" stroke-width="1" stroke-dasharray="5,5"/>
  <line x1="420" y1="150" x2="420" y2="110" stroke="#000" stroke-width="1" stroke-dasharray="5,5"/>
  <polygon points="420,110 415,120 425,120" fill="white" stroke="#000" stroke-width="1"/>
  
  <!-- Association arrows (nextHandler references) -->
  <!-- LowLevelHandler -> Handler -->
  <line x1="230" y1="235" x2="270" y2="235" stroke="#666" stroke-width="1"/>
  <line x1="270" y1="235" x2="270" y2="70" stroke="#666" stroke-width="1"/>
  <line x1="270" y1="70" x2="320" y2="70" stroke="#666" stroke-width="1"/>
  <polygon points="320,70 310,65 310,75" fill="#666" stroke="#666" stroke-width="1"/>
  
  <!-- MediumLevelHandler -> Handler -->
  <line x1="400" y1="200" x2="400" y2="160" stroke="#666" stroke-width="1"/>
  <line x1="400" y1="160" x2="290" y2="160" stroke="#666" stroke-width="1"/>
  <line x1="290" y1="160" x2="290" y2="85" stroke="#666" stroke-width="1"/>
  <line x1="290" y1="85" x2="320" y2="85" stroke="#666" stroke-width="1"/>
  <polygon points="320,85 310,80 310,90" fill="#666" stroke="#666" stroke-width="1"/>
  
  <!-- HighLevelHandler -> Handler -->
  <line x1="570" y1="235" x2="530" y2="235" stroke="#666" stroke-width="1"/>
  <line x1="530" y1="235" x2="530" y2="70" stroke="#666" stroke-width="1"/>
  <line x1="530" y1="70" x2="480" y2="70" stroke="#666" stroke-width="1"/>
  <polygon points="480,70 490,65 490,75" fill="#666" stroke="#666" stroke-width="1"/>
  
  <!-- ChainOfResponsibilityEx uses Handler -->
  <line x1="400" y1="400" x2="400" y2="350" stroke="#666" stroke-width="1"/>
  <line x1="400" y1="350" x2="400" y2="110" stroke="#666" stroke-width="1"/>
  <polygon points="400,110 395,120 405,120" fill="#666" stroke="#666" stroke-width="1"/>
  
  <!-- Labels -->
  <text x="200" y="130" font-family="Arial, sans-serif" font-size="8" fill="#666">implements</text>
  <text x="400" y="130" font-family="Arial, sans-serif" font-size="8" fill="#666">implements</text>
  <text x="600" y="130" font-family="Arial, sans-serif" font-size="8" fill="#666">implements</text>
  <text x="280" y="65" font-family="Arial, sans-serif" font-size="8" fill="#666">nextHandler</text>
  <text x="300" y="80" font-family="Arial, sans-serif" font-size="8" fill="#666">nextHandler</text>
  <text x="540" y="65" font-family="Arial, sans-serif" font-size="8" fill="#666">nextHandler</text>
  <text x="410" y="325" font-family="Arial, sans-serif" font-size="8" fill="#666">uses</text>
</svg>