<svg width="1000" height="800" xmlns="http://www.w3.org/2000/svg">
  <!-- White background -->
  <rect width="1000" height="800" fill="white" stroke="black" stroke-width="1"/>
  
  <!-- Title -->
  <text x="500" y="30" text-anchor="middle" font-family="Arial, sans-serif" font-size="18" font-weight="bold" fill="black">Mediator Pattern Class Diagram</text>
  
  <!-- Mediator Interface -->
  <rect x="50" y="80" width="200" height="100" fill="lightyellow" stroke="black" stroke-width="2"/>
  <text x="150" y="100" text-anchor="middle" font-family="Arial, sans-serif" font-size="12" font-weight="bold" fill="black">&lt;&lt;interface&gt;&gt;</text>
  <text x="150" y="120" text-anchor="middle" font-family="Arial, sans-serif" font-size="14" font-weight="bold" fill="black">Mediator</text>
  <line x1="50" y1="130" x2="250" y2="130" stroke="black" stroke-width="1"/>
  <text x="60" y="150" font-family="Arial, sans-serif" font-size="11" fill="black">+ sendMassage(String, Colleague): void</text>
  
  <!-- ChatMediator Class -->
  <rect x="350" y="80" width="250" height="140" fill="lightblue" stroke="black" stroke-width="2"/>
  <text x="475" y="105" text-anchor="middle" font-family="Arial, sans-serif" font-size="14" font-weight="bold" fill="black">ChatMediator</text>
  <line x1="350" y1="115" x2="600" y2="115" stroke="black" stroke-width="1"/>
  <text x="360" y="135" font-family="Arial, sans-serif" font-size="11" fill="black">- Colleagues: List&lt;Colleague&gt;</text>
  <line x1="350" y1="145" x2="600" y2="145" stroke="black" stroke-width="1"/>
  <text x="360" y="165" font-family="Arial, sans-serif" font-size="11" fill="black">+ addCollege(Colleague): void</text>
  <text x="360" y="185" font-family="Arial, sans-serif" font-size="11" fill="black">+ sendMassage(String, Colleague): void</text>
  <text x="360" y="205" font-family="Arial, sans-serif" font-size="11" fill="black">+ ChatMediator()</text>
  
  <!-- Abstract Colleague Class -->
  <rect x="50" y="300" width="200" height="140" fill="lightgreen" stroke="black" stroke-width="2"/>
  <text x="150" y="325" text-anchor="middle" font-family="Arial, sans-serif" font-size="14" font-weight="bold" fill="black">Colleague</text>
  <text x="150" y="340" text-anchor="middle" font-family="Arial, sans-serif" font-size="10" font-style="italic" fill="black">(abstract)</text>
  <line x1="50" y1="350" x2="250" y2="350" stroke="black" stroke-width="1"/>
  <text x="60" y="370" font-family="Arial, sans-serif" font-size="11" fill="black"># mediator: Mediator</text>
  <line x1="50" y1="380" x2="250" y2="380" stroke="black" stroke-width="1"/>
  <text x="60" y="400" font-family="Arial, sans-serif" font-size="11" fill="black">+ Colleague(Mediator)</text>
  <text x="60" y="420" font-family="Arial, sans-serif" font-size="11" fill="black">+ send(String): void</text>
  <text x="60" y="430" font-family="Arial, sans-serif" font-size="10" font-style="italic" fill="black">  (abstract)</text>
  
  <!-- User Class -->
  <rect x="350" y="300" width="200" height="140" fill="lightcoral" stroke="black" stroke-width="2"/>
  <text x="450" y="325" text-anchor="middle" font-family="Arial, sans-serif" font-size="14" font-weight="bold" fill="black">user</text>
  <line x1="350" y1="335" x2="550" y2="335" stroke="black" stroke-width="1"/>
  <text x="360" y="355" font-family="Arial, sans-serif" font-size="11" fill="black">- name: String</text>
  <line x1="350" y1="365" x2="550" y2="365" stroke="black" stroke-width="1"/>
  <text x="360" y="385" font-family="Arial, sans-serif" font-size="11" fill="black">+ user(Mediator, String)</text>
  <text x="360" y="405" font-family="Arial, sans-serif" font-size="11" fill="black">+ send(String): void</text>
  <text x="360" y="425" font-family="Arial, sans-serif" font-size="11" fill="black">+ receive(String): void</text>
  
  <!-- MediatorEx Class -->
  <rect x="700" y="300" width="200" height="100" fill="lightsalmon" stroke="black" stroke-width="2"/>
  <text x="800" y="325" text-anchor="middle" font-family="Arial, sans-serif" font-size="14" font-weight="bold" fill="black">MediatorEx</text>
  <line x1="700" y1="335" x2="900" y2="335" stroke="black" stroke-width="1"/>
  <text x="710" y="355" font-family="Arial, sans-serif" font-size="11" fill="black">+ main(String[]): void</text>
  <text x="710" y="375" font-family="Arial, sans-serif" font-size="10" font-style="italic" fill="black">  (static)</text>
  
  <!-- Relationships -->
  
  <!-- ChatMediator implements Mediator -->
  <line x1="350" y1="130" x2="250" y2="130" stroke="black" stroke-width="1"/>
  <polygon points="250,125 265,130 250,135" fill="white" stroke="black" stroke-width="1"/>
  <line x1="250" y1="125" x2="265" y2="130" stroke="black" stroke-width="1"/>
  <line x1="250" y1="135" x2="265" y2="130" stroke="black" stroke-width="1"/>
  
  <!-- user extends Colleague -->
  <line x1="350" y1="370" x2="250" y2="370" stroke="black" stroke-width="1"/>
  <polygon points="250,365 265,370 250,375" fill="white" stroke="black" stroke-width="1"/>
  
  <!-- ChatMediator aggregates Colleague -->
  <line x1="475" y1="220" x2="475" y2="250" stroke="black" stroke-width="1"/>
  <line x1="475" y1="250" x2="150" y2="250" stroke="black" stroke-width="1"/>
  <line x1="150" y1="250" x2="150" y2="300" stroke="black" stroke-width="1"/>
  <polygon points="145,300 150,285 155,300" fill="white" stroke="black" stroke-width="1"/>
  <text x="310" y="245" font-family="Arial, sans-serif" font-size="10" fill="black">1..*</text>
  <text x="460" y="245" font-family="Arial, sans-serif" font-size="10" fill="black">1</text>
  
  <!-- Colleague uses Mediator -->
  <line x1="150" y1="300" x2="150" y2="180" stroke="black" stroke-width="1"/>
  <polygon points="145,185 150,170 155,185" fill="black" stroke="black" stroke-width="1"/>
  <text x="160" y="240" font-family="Arial, sans-serif" font-size="10" fill="black">uses</text>
  
  <!-- MediatorEx uses other classes (dashed lines for dependency) -->
  <line x1="700" y1="350" x2="550" y2="350" stroke="black" stroke-width="1" stroke-dasharray="5,5"/>
  <polygon points="550,345 565,350 550,355" fill="black" stroke="black" stroke-width="1"/>
  
  <line x1="700" y1="320" x2="600" y2="150" stroke="black" stroke-width="1" stroke-dasharray="5,5"/>
  <polygon points="595,155 610,150 605,165" fill="black" stroke="black" stroke-width="1"/>
  
  <!-- Stereotype labels -->
  <text x="290" y="125" font-family="Arial, sans-serif" font-size="10" fill="black">implements</text>
  <text x="290" y="365" font-family="Arial, sans-serif" font-size="10" fill="black">extends</text>
  
  <!-- Multiplicity and role labels -->
  <text x="130" y="280" font-family="Arial, sans-serif" font-size="10" fill="black">colleagues</text>
  <text x="460" y="280" font-family="Arial, sans-serif" font-size="10" fill="black">mediator</text>
  
  <!-- Legend -->
  <rect x="750" y="500" width="200" height="200" fill="white" stroke="black" stroke-width="1"/>
  <text x="850" y="520" text-anchor="middle" font-family="Arial, sans-serif" font-size="12" font-weight="bold" fill="black">Legend</text>
  
  <!-- Interface symbol -->
  <rect x="760" y="535" width="60" height="25" fill="lightyellow" stroke="black" stroke-width="1"/>
  <text x="790" y="550" text-anchor="middle" font-family="Arial, sans-serif" font-size="9" fill="black">Interface</text>
  <text x="835" y="550" font-family="Arial, sans-serif" font-size="10" fill="black">Interface</text>
  
  <!-- Class symbol -->
  <rect x="760" y="570" width="60" height="25" fill="lightblue" stroke="black" stroke-width="1"/>
  <text x="790" y="585" text-anchor="middle" font-family="Arial, sans-serif" font-size="9" fill="black">Class</text>
  <text x="835" y="585" font-family="Arial, sans-serif" font-size="10" fill="black">Concrete Class</text>
  
  <!-- Abstract class symbol -->
  <rect x="760" y="605" width="60" height="25" fill="lightgreen" stroke="black" stroke-width="1"/>
  <text x="790" y="620" text-anchor="middle" font-family="Arial, sans-serif" font-size="9" fill="black">Abstract</text>
  <text x="835" y="620" font-family="Arial, sans-serif" font-size="10" fill="black">Abstract Class</text>
  
  <!-- Inheritance arrow -->
  <line x1="760" y1="645" x2="810" y2="645" stroke="black" stroke-width="1"/>
  <polygon points="810,640 825,645 810,650" fill="white" stroke="black" stroke-width="1"/>
  <text x="835" y="650" font-family="Arial, sans-serif" font-size="10" fill="black">Inheritance</text>
  
  <!-- Aggregation diamond -->
  <line x1="760" y1="665" x2="810" y2="665" stroke="black" stroke-width="1"/>
  <polygon points="810,660 825,665 810,670" fill="white" stroke="black" stroke-width="1"/>
  <text x="835" y="670" font-family="Arial, sans-serif" font-size="10" fill="black">Aggregation</text>
  
</svg>