<svg width="1000" height="800" xmlns="http://www.w3.org/2000/svg">
  <!-- Background -->
  <rect width="1000" height="800" fill="#f8f9fa" stroke="none"/>
  
  <!-- Title -->
  <text x="500" y="30" text-anchor="middle" font-family="Arial" font-size="18" font-weight="bold">Abstract Factory Pattern - Sequence Diagram</text>
  
  <!-- Actors/Objects -->
  <!-- Main -->
  <rect x="50" y="60" width="100" height="40" fill="#e3f2fd" stroke="#1976d2" stroke-width="2"/>
  <text x="100" y="85" text-anchor="middle" font-family="Arial" font-size="12" font-weight="bold">main()</text>
  <line x1="100" y1="100" x2="100" y2="750" stroke="#666" stroke-width="2" stroke-dasharray="5,5"/>
  
  <!-- LightThemeFactory -->
  <rect x="200" y="60" width="120" height="40" fill="#fff8e1" stroke="#ffa000" stroke-width="2"/>
  <text x="260" y="85" text-anchor="middle" font-family="Arial" font-size="12" font-weight="bold">LightThemeFactory</text>
  <line x1="260" y1="100" x2="260" y2="750" stroke="#666" stroke-width="2" stroke-dasharray="5,5"/>
  
  <!-- LightButton -->
  <rect x="370" y="60" width="100" height="40" fill="#fff3e0" stroke="#f57c00" stroke-width="2"/>
  <text x="420" y="85" text-anchor="middle" font-family="Arial" font-size="12" font-weight="bold">LightButton</text>
  <line x1="420" y1="100" x2="420" y2="750" stroke="#666" stroke-width="2" stroke-dasharray="5,5"/>
  
  <!-- LightTextField -->
  <rect x="520" y="60" width="100" height="40" fill="#fff3e0" stroke="#f57c00" stroke-width="2"/>
  <text x="570" y="85" text-anchor="middle" font-family="Arial" font-size="12" font-weight="bold">LightTextField</text>
  <line x1="570" y1="100" x2="570" y2="750" stroke="#666" stroke-width="2" stroke-dasharray="5,5"/>
  
  <!-- DarkThemeFactory -->
  <rect x="670" y="60" width="120" height="40" fill="#fff8e1" stroke="#ffa000" stroke-width="2"/>
  <text x="730" y="85" text-anchor="middle" font-family="Arial" font-size="12" font-weight="bold">DarkThemeFactory</text>
  <line x1="730" y1="100" x2="730" y2="750" stroke="#666" stroke-width="2" stroke-dasharray="5,5"/>
  
  <!-- DarkButton -->
  <rect x="840" y="60" width="100" height="40" fill="#fff3e0" stroke="#f57c00" stroke-width="2"/>
  <text x="890" y="85" text-anchor="middle" font-family="Arial" font-size="12" font-weight="bold">DarkButton</text>
  <line x1="890" y1="100" x2="890" y2="750" stroke="#666" stroke-width="2" stroke-dasharray="5,5"/>
  
  <!-- DarkTextField (positioned below for clarity) -->
  <rect x="670" y="720" width="100" height="40" fill="#fff3e0" stroke="#f57c00" stroke-width="2"/>
  <text x="720" y="745" text-anchor="middle" font-family="Arial" font-size="12" font-weight="bold">DarkTextField</text>
  <line x1="720" y1="100" x2="720" y2="720" stroke="#666" stroke-width="2" stroke-dasharray="5,5"/>
  
  <!-- Sequence Steps -->
  
  <!-- Step 1: Create LightThemeFactory -->
  <rect x="105" y="120" width="150" height="20" fill="#e8f5e8" stroke="#388e3c" stroke-width="1"/>
  <text x="180" y="135" text-anchor="middle" font-family="Arial" font-size="10">1: new LightThemeFactory()</text>
  <line x1="100" y1="140" x2="260" y2="140" stroke="#388e3c" stroke-width="2" marker-end="url(#arrow)"/>
  
  <!-- Step 2: Create LightButton -->
  <rect x="105" y="160" width="150" height="20" fill="#e8f5e8" stroke="#388e3c" stroke-width="1"/>
  <text x="180" y="175" text-anchor="middle" font-family="Arial" font-size="10">2: createButton()</text>
  <line x1="100" y1="180" x2="260" y2="180" stroke="#388e3c" stroke-width="2" marker-end="url(#arrow)"/>
  
  <!-- Step 2a: Factory creates LightButton -->
  <rect x="265" y="200" width="150" height="20" fill="#fff3e0" stroke="#f57c00" stroke-width="1"/>
  <text x="340" y="215" text-anchor="middle" font-family="Arial" font-size="10">2a: new LightButton()</text>
  <line x1="260" y1="220" x2="420" y2="220" stroke="#f57c00" stroke-width="2" marker-end="url(#arrow)"/>
  
  <!-- Step 2b: Return LightButton -->
  <line x1="420" y1="240" x2="260" y2="240" stroke="#f57c00" stroke-width="2" stroke-dasharray="3,3" marker-end="url(#return)"/>
  <text x="340" y="235" text-anchor="middle" font-family="Arial" font-size="10">2b: return</text>
  
  <!-- Step 2c: Return to main -->
  <line x1="260" y1="260" x2="100" y2="260" stroke="#388e3c" stroke-width="2" stroke-dasharray="3,3" marker-end="url(#return)"/>
  <text x="180" y="255" text-anchor="middle" font-family="Arial" font-size="10">2c: return lightButton</text>
  
  <!-- Step 3: Create LightTextField -->
  <rect x="105" y="280" width="150" height="20" fill="#e8f5e8" stroke="#388e3c" stroke-width="1"/>
  <text x="180" y="295" text-anchor="middle" font-family="Arial" font-size="10">3: createTextField()</text>
  <line x1="100" y1="300" x2="260" y2="300" stroke="#388e3c" stroke-width="2" marker-end="url(#arrow)"/>
  
  <!-- Step 3a: Factory creates LightTextField -->
  <rect x="265" y="320" width="150" height="20" fill="#fff3e0" stroke="#f57c00" stroke-width="1"/>
  <text x="340" y="335" text-anchor="middle" font-family="Arial" font-size="10">3a: new LightTextField()</text>
  <line x1="260" y1="340" x2="570" y2="340" stroke="#f57c00" stroke-width="2" marker-end="url(#arrow)"/>
  
  <!-- Step 3b: Return LightTextField -->
  <line x1="570" y1="360" x2="260" y2="360" stroke="#f57c00" stroke-width="2" stroke-dasharray="3,3" marker-end="url(#return)"/>
  <text x="415" y="355" text-anchor="middle" font-family="Arial" font-size="10">3b: return</text>
  
  <!-- Step 3c: Return to main -->
  <line x1="260" y1="380" x2="100" y2="380" stroke="#388e3c" stroke-width="2" stroke-dasharray="3,3" marker-end="url(#return)"/>
  <text x="180" y="375" text-anchor="middle" font-family="Arial" font-size="10">3c: return lightTextField</text>
  
  <!-- Step 4: Display LightButton -->
  <rect x="105" y="400" width="120" height="20" fill="#ffebee" stroke="#d32f2f" stroke-width="1"/>
  <text x="165" y="415" text-anchor="middle" font-family="Arial" font-size="10">4: display()</text>
  <line x1="100" y1="420" x2="420" y2="420" stroke="#d32f2f" stroke-width="2" marker-end="url(#arrow)"/>
  
  <!-- Step 5: Display LightTextField -->
  <rect x="105" y="440" width="120" height="20" fill="#ffebee" stroke="#d32f2f" stroke-width="1"/>
  <text x="165" y="455" text-anchor="middle" font-family="Arial" font-size="10">5: display()</text>
  <line x1="100" y1="460" x2="570" y2="460" stroke="#d32f2f" stroke-width="2" marker-end="url(#arrow)"/>
  
  <!-- Step 6: Create DarkThemeFactory -->
  <rect x="105" y="500" width="150" height="20" fill="#e8f5e8" stroke="#388e3c" stroke-width="1"/>
  <text x="180" y="515" text-anchor="middle" font-family="Arial" font-size="10">6: new DarkThemeFactory()</text>
  <line x1="100" y1="520" x2="730" y2="520" stroke="#388e3c" stroke-width="2" marker-end="url(#arrow)"/>
  
  <!-- Step 7: Create DarkButton -->
  <rect x="105" y="540" width="150" height="20" fill="#e8f5e8" stroke="#388e3c" stroke-width="1"/>
  <text x="180" y="555" text-anchor="middle" font-family="Arial" font-size="10">7: createButton()</text>
  <line x1="100" y1="560" x2="730" y2="560" stroke="#388e3c" stroke-width="2" marker-end="url(#arrow)"/>
  
  <!-- Step 7a: Factory creates DarkButton -->
  <rect x="735" y="580" width="150" height="20" fill="#fff3e0" stroke="#f57c00" stroke-width="1"/>
  <text x="810" y="595" text-anchor="middle" font-family="Arial" font-size="10">7a: new DarkButton()</text>
  <line x1="730" y1="600" x2="890" y2="600" stroke="#f57c00" stroke-width="2" marker-end="url(#arrow)"/>
  
  <!-- Step 7b: Return DarkButton -->
  <line x1="890" y1="620" x2="730" y2="620" stroke="#f57c00" stroke-width="2" stroke-dasharray="3,3" marker-end="url(#return)"/>
  <text x="810" y="615" text-anchor="middle" font-family="Arial" font-size="10">7b: return</text>
  
  <!-- Step 7c: Return to main -->
  <line x1="730" y1="640" x2="100" y2="640" stroke="#388e3c" stroke-width="2" stroke-dasharray="3,3" marker-end="url(#return)"/>
  <text x="415" y="635" text-anchor="middle" font-family="Arial" font-size="10">7c: return darkButton</text>
  
  <!-- Step 8: Create DarkTextField -->
  <rect x="105" y="660" width="150" height="20" fill="#e8f5e8" stroke="#388e3c" stroke-width="1"/>
  <text x="180" y="675" text-anchor="middle" font-family="Arial" font-size="10">8: createTextField()</text>
  <line x1="100" y1="680" x2="730" y2="680" stroke="#388e3c" stroke-width="2" marker-end="url(#arrow)"/>
  
  <!-- Step 8a: Factory creates DarkTextField -->
  <rect x="625" y="690" width="150" height="20" fill="#fff3e0" stroke="#f57c00" stroke-width="1"/>
  <text x="700" y="705" text-anchor="middle" font-family="Arial" font-size="10">8a: new DarkTextField()</text>
  <line x1="730" y1="700" x2="720" y2="700" stroke="#f57c00" stroke-width="2" marker-end="url(#arrow)"/>
  
  <!-- Final display calls would continue but diagram is getting crowded -->
  
  <!-- Arrow markers -->
  <defs>
    <marker id="arrow" markerWidth="10" markerHeight="10" refX="9" refY="3" orient="auto" markerUnits="strokeWidth">
      <polygon points="0,0 0,6 9,3" fill="#666"/>
    </marker>
    <marker id="return" markerWidth="10" markerHeight="10" refX="1" refY="3" orient="auto" markerUnits="strokeWidth">
      <polygon points="0,3 9,0 9,6" fill="none" stroke="#666" stroke-width="1"/>
    </marker>
  </defs>
  
  <!-- Legend -->
  <rect x="50" y="770" width="900" height="25" fill="#f5f5f5" stroke="#ccc" stroke-width="1"/>
  <text x="60" y="785" font-family="Arial" font-size="11" font-weight="bold">Sequence Flow:</text>
  <text x="150" y="785" font-family="Arial" font-size="10">1-3: Light Theme Creation → 4-5: Light Components Display → 6-8: Dark Theme Creation → Display Dark Components</text>
  
  <!-- Notes -->
  <text x="500" y="770" text-anchor="middle" font-family="Arial" font-size="11" fill="#666">Note: Steps 9-10 (Dark component display calls) omitted for clarity</text>
</svg>