<svg width="800" height="600" xmlns="http://www.w3.org/2000/svg">
  <defs>
    <style>
      .class-box { fill: white; stroke: black; stroke-width: 2; }
      .class-title { font-family: Arial, sans-serif; font-size: 14px; font-weight: bold; text-anchor: middle; }
      .class-content { font-family: Arial, sans-serif; font-size: 11px; }
      .separator { stroke: black; stroke-width: 1; }
      .arrow { stroke: black; stroke-width: 2; fill: none; marker-end: url(#arrowhead); }
      .dependency { stroke: black; stroke-width: 2; fill: none; stroke-dasharray: 5,5; marker-end: url(#arrowhead); }
    </style>
    <marker id="arrowhead" markerWidth="10" markerHeight="7" refX="9" refY="3.5" orient="auto">
      <polygon points="0 0, 10 3.5, 0 7" fill="black" />
    </marker>
  </defs>
  
  <!-- Background -->
  <rect width="800" height="600" fill="white"/>
  
  <!-- TextEditorMemento Class -->
  <rect x="50" y="50" width="200" height="120" class="class-box"/>
  <text x="150" y="70" class="class-title">TextEditorMemento</text>
  <line x1="50" y1="80" x2="250" y2="80" class="separator"/>
  <text x="60" y="100" class="class-content">- content: String</text>
  <line x1="50" y1="110" x2="250" y2="110" class="separator"/>
  <text x="60" y="130" class="class-content">+ TextEditorMemento(String)</text>
  <text x="60" y="150" class="class-content">+ getContent(): String</text>
  
  <!-- TextEditor Class -->
  <rect x="350" y="200" width="250" height="180" class="class-box"/>
  <text x="475" y="220" class="class-title">TextEditor</text>
  <line x1="350" y1="230" x2="600" y2="230" class="separator"/>
  <text x="360" y="250" class="class-content">- content: String</text>
  <line x1="350" y1="260" x2="600" y2="260" class="separator"/>
  <text x="360" y="280" class="class-content">+ write(String): void</text>
  <text x="360" y="300" class="class-content">+ getContent(): String</text>
  <text x="360" y="320" class="class-content">+ save(): TextEditorMemento</text>
  <text x="360" y="340" class="class-content">+ restore(TextEditorMemento): void</text>
  
  <!-- History Class -->
  <rect x="50" y="450" width="280" height="120" class="class-box"/>
  <text x="190" y="470" class="class-title">History</text>
  <line x1="50" y1="480" x2="330" y2="480" class="separator"/>
  <text x="60" y="500" class="class-content">- history: Stack&lt;TextEditorMemento&gt;</text>
  <line x1="50" y1="510" x2="330" y2="510" class="separator"/>
  <text x="60" y="530" class="class-content">+ save(TextEditor): void</text>
  <text x="60" y="550" class="class-content">+ undo(TextEditor): void</text>
  
  <!-- MementoEx Class -->
  <rect x="450" y="450" width="200" height="80" class="class-box"/>
  <text x="550" y="470" class="class-title">MementoEx</text>
  <line x1="450" y1="480" x2="650" y2="480" class="separator"/>
  <text x="460" y="500" class="class-content">+ main(String[]): void</text>
  
  <!-- Relationships -->
  <!-- TextEditor creates TextEditorMemento -->
  <line x1="400" y1="200" x2="200" y2="170" class="arrow"/>
  <text x="280" y="185" class="class-content" font-size="10">creates</text>
  
  <!-- History uses TextEditor -->
  <line x1="330" y1="490" x2="350" y2="350" class="dependency"/>
  <text x="340" y="420" class="class-content" font-size="10">uses</text>
  
  <!-- History stores TextEditorMemento -->
  <line x1="150" y1="450" x2="150" y2="170" class="arrow"/>
  <text x="160" y="310" class="class-content" font-size="10">stores</text>
  
  <!-- MementoEx uses TextEditor and History -->
  <line x1="500" y1="450" x2="475" y2="380" class="dependency"/>
  <line x1="450" y1="500" x2="330" y2="520" class="dependency"/>
  
  <!-- Pattern Labels -->
  <text x="150" y="30" class="class-content" font-weight="bold" font-size="12">Memento</text>
  <text x="475" y="180" class="class-content" font-weight="bold" font-size="12">Originator</text>
  <text x="190" y="430" class="class-content" font-weight="bold" font-size="12">Caretaker</text>
</svg>