<svg width="1000" height="800" xmlns="http://www.w3.org/2000/svg">
  <!-- White background -->
  <rect width="1000" height="800" fill="white"/>
  
  <!-- Title -->
  <text x="500" y="30" text-anchor="middle" font-family="Arial, sans-serif" font-size="18" font-weight="bold" fill="#333">
    Decorator Design Pattern - Class Diagram
  </text>
  
  <!-- Interface: Coffee -->
  <rect x="400" y="70" width="200" height="100" fill="#e8f4fd" stroke="#4a90e2" stroke-width="2" rx="5"/>
  <text x="500" y="90" text-anchor="middle" font-family="Arial, sans-serif" font-size="12" font-weight="bold">&lt;&lt;interface&gt;&gt;</text>
  <text x="500" y="110" text-anchor="middle" font-family="Arial, sans-serif" font-size="16" font-weight="bold">Coffee</text>
  <line x1="410" y1="125" x2="590" y2="125" stroke="#4a90e2" stroke-width="1"/>
  <text x="415" y="145" font-family="Arial, sans-serif" font-size="12">+ getCost() : double</text>
  <text x="415" y="160" font-family="Arial, sans-serif" font-size="12">+ getDescription() : String</text>
  
  <!-- Class: SimpleCoffee -->
  <rect x="100" y="230" width="200" height="120" fill="#fff2cc" stroke="#d6b656" stroke-width="2" rx="5"/>
  <text x="200" y="255" text-anchor="middle" font-family="Arial, sans-serif" font-size="16" font-weight="bold">SimpleCoffee</text>
  <line x1="110" y1="270" x2="290" y2="270" stroke="#d6b656" stroke-width="1"/>
  <text x="115" y="290" font-family="Arial, sans-serif" font-size="12">+ getCost() : double</text>
  <text x="115" y="310" font-family="Arial, sans-serif" font-size="12">+ getDescription() : String</text>
  <text x="115" y="335" font-family="Arial, sans-serif" font-size="10" fill="#666">// Returns 5.0 and "Simple Coffee"</text>
  
  <!-- Abstract Class: CoffeeDecorator -->
  <rect x="500" y="230" width="220" height="140" fill="#f0f0f0" stroke="#888" stroke-width="2" rx="5"/>
  <text x="610" y="250" text-anchor="middle" font-family="Arial, sans-serif" font-size="12" font-weight="bold">&lt;&lt;abstract&gt;&gt;</text>
  <text x="610" y="270" text-anchor="middle" font-family="Arial, sans-serif" font-size="16" font-weight="bold">CoffeeDecorator</text>
  <line x1="510" y1="285" x2="710" y2="285" stroke="#888" stroke-width="1"/>
  <text x="515" y="305" font-family="Arial, sans-serif" font-size="12"># decoratedCoffee : Coffee</text>
  <line x1="510" y1="315" x2="710" y2="315" stroke="#888" stroke-width="1"/>
  <text x="515" y="335" font-family="Arial, sans-serif" font-size="12">+ CoffeeDecorator(coffee: Coffee)</text>
  <text x="515" y="350" font-family="Arial, sans-serif" font-size="12">+ getCost() : double</text>
  <text x="515" y="365" font-family="Arial, sans-serif" font-size="12">+ getDescription() : String</text>
  
  <!-- Class: MilkDecorator -->
  <rect x="350" y="440" width="200" height="120" fill="#ffe6cc" stroke="#d79b00" stroke-width="2" rx="5"/>
  <text x="450" y="465" text-anchor="middle" font-family="Arial, sans-serif" font-size="16" font-weight="bold">MilkDecorator</text>
  <line x1="360" y1="480" x2="540" y2="480" stroke="#d79b00" stroke-width="1"/>
  <text x="365" y="500" font-family="Arial, sans-serif" font-size="12">+ MilkDecorator(coffee: Coffee)</text>
  <text x="365" y="520" font-family="Arial, sans-serif" font-size="12">+ getCost() : double</text>
  <text x="365" y="540" font-family="Arial, sans-serif" font-size="12">+ getDescription() : String</text>
  <text x="365" y="555" font-family="Arial, sans-serif" font-size="10" fill="#666">// Adds +1.5 cost, +", Milk"</text>
  
  <!-- Class: SugarDecorator -->
  <rect x="600" y="440" width="200" height="120" fill="#ffe6cc" stroke="#d79b00" stroke-width="2" rx="5"/>
  <text x="700" y="465" text-anchor="middle" font-family="Arial, sans-serif" font-size="16" font-weight="bold">SugarDecorator</text>
  <line x1="610" y1="480" x2="790" y2="480" stroke="#d79b00" stroke-width="1"/>
  <text x="615" y="500" font-family="Arial, sans-serif" font-size="12">+ SugarDecorator(coffee: Coffee)</text>
  <text x="615" y="520" font-family="Arial, sans-serif" font-size="12">+ getCost() : double</text>
  <text x="615" y="540" font-family="Arial, sans-serif" font-size="12">+ getDescription() : String</text>
  <text x="615" y="555" font-family="Arial, sans-serif" font-size="10" fill="#666">// Adds +0.5 cost, +", Sugar"</text>
  
  <!-- Class: Decorator (Main class) -->
  <rect x="100" y="620" width="200" height="80" fill="#d5e8d4" stroke="#82b366" stroke-width="2" rx="5"/>
  <text x="200" y="645" text-anchor="middle" font-family="Arial, sans-serif" font-size="16" font-weight="bold">Decorator</text>
  <line x1="110" y1="660" x2="290" y2="660" stroke="#82b366" stroke-width="1"/>
  <text x="200" y="685" text-anchor="middle" font-family="Arial, sans-serif" font-size="12">+ main(args: String[]) : void</text>
  
  <!-- Inheritance arrows (implements) -->
  <!-- SimpleCoffee implements Coffee -->
  <line x1="200" y1="230" x2="200" y2="190" stroke="#333" stroke-width="2"/>
  <line x1="200" y1="190" x2="470" y2="190" stroke="#333" stroke-width="2"/>
  <line x1="470" y1="190" x2="470" y2="170" stroke="#333" stroke-width="2"/>
  <polygon points="465,175 470,170 475,175" fill="white" stroke="#333" stroke-width="2"/>
  
  <!-- CoffeeDecorator implements Coffee -->
  <line x1="610" y1="230" x2="610" y2="190" stroke="#333" stroke-width="2"/>
  <line x1="610" y1="190" x2="530" y2="190" stroke="#333" stroke-width="2"/>
  <line x1="530" y1="190" x2="530" y2="170" stroke="#333" stroke-width="2"/>
  <polygon points="525,175 530,170 535,175" fill="white" stroke="#333" stroke-width="2"/>
  
  <!-- MilkDecorator extends CoffeeDecorator -->
  <line x1="450" y1="440" x2="450" y2="400" stroke="#333" stroke-width="2"/>
  <line x1="450" y1="400" x2="580" y2="400" stroke="#333" stroke-width="2"/>
  <line x1="580" y1="400" x2="580" y2="370" stroke="#333" stroke-width="2"/>
  <polygon points="575,375 580,370 585,375" fill="white" stroke="#333" stroke-width="2"/>
  
  <!-- SugarDecorator extends CoffeeDecorator -->
  <line x1="700" y1="440" x2="700" y2="400" stroke="#333" stroke-width="2"/>
  <line x1="700" y1="400" x2="640" y2="400" stroke="#333" stroke-width="2"/>
  <line x1="640" y1="400" x2="640" y2="370" stroke="#333" stroke-width="2"/>
  <polygon points="635,375 640,370 645,375" fill="white" stroke="#333" stroke-width="2"/>
  
  <!-- Composition relationship (CoffeeDecorator has Coffee) -->
  <line x1="500" y1="300" x2="450" y2="300" stroke="#333" stroke-width="2"/>
  <line x1="450" y1="300" x2="450" y2="120" stroke="#333" stroke-width="2"/>
  <line x1="450" y1="120" x2="400" y2="120" stroke="#333" stroke-width="2"/>
  <polygon points="405,115 400,120 405,125" fill="#333"/>
  <rect x="495" y="295" width="10" height="10" fill="#333"/>
  <text x="455" y="210" font-family="Arial, sans-serif" font-size="10" fill="#666">decoratedCoffee</text>
  <text x="455" y="225" font-family="Arial, sans-serif" font-size="10" fill="#666">1</text>
  
  <!-- Usage relationship (Decorator uses classes) -->
  <line x1="200" y1="620" x2="200" y2="590" stroke="#333" stroke-width="2" stroke-dasharray="5,5"/>
  <polygon points="195,595 200,590 205,595" fill="#333"/>
  <text x="210" y="605" font-family="Arial, sans-serif" font-size="10" fill="#666">&lt;&lt;uses&gt;&gt;</text>
  
  <!-- Legend -->
  <rect x="750" y="250" width="220" height="180" fill="#f9f9f9" stroke="#ccc" stroke-width="1" rx="5"/>
  <text x="860" y="275" text-anchor="middle" font-family="Arial, sans-serif" font-size="14" font-weight="bold">Legend</text>
  
  <!-- Interface legend -->
  <rect x="760" y="290" width="40" height="15" fill="#e8f4fd" stroke="#4a90e2" stroke-width="1" rx="2"/>
  <text x="815" y="302" font-family="Arial, sans-serif" font-size="11">Component Interface</text>
  
  <!-- Concrete component legend -->
  <rect x="760" y="315" width="40" height="15" fill="#fff2cc" stroke="#d6b656" stroke-width="1" rx="2"/>
  <text x="815" y="327" font-family="Arial, sans-serif" font-size="11">Concrete Component</text>
  
  <!-- Abstract decorator legend -->
  <rect x="760" y="340" width="40" height="15" fill="#f0f0f0" stroke="#888" stroke-width="1" rx="2"/>
  <text x="815" y="352" font-family="Arial, sans-serif" font-size="11">Abstract Decorator</text>
  
  <!-- Concrete decorators legend -->
  <rect x="760" y="365" width="40" height="15" fill="#ffe6cc" stroke="#d79b00" stroke-width="1" rx="2"/>
  <text x="815" y="377" font-family="Arial, sans-serif" font-size="11">Concrete Decorators</text>
  
  <!-- Arrows legend -->
  <line x1="760" y1="395" x2="790" y2="395" stroke="#333" stroke-width="2"/>
  <polygon points="785,390 790,395 785,400" fill="white" stroke="#333" stroke-width="2"/>
  <text x="815" y="400" font-family="Arial, sans-serif" font-size="11">Implements/Extends</text>
  
  <line x1="760" y1="415" x2="790" y2="415" stroke="#333" stroke-width="2"/>
  <polygon points="785,410 790,415 785,420" fill="#333"/>
  <rect x="755" y="410" width="10" height="10" fill="#333"/>
  <text x="815" y="420" font-family="Arial, sans-serif" font-size="11">Composition</text>
  
  <!-- Arrow marker definition -->
  <defs>
    <marker id="arrowhead" markerWidth="10" markerHeight="7" refX="9" refY="3.5" orient="auto">
      <polygon points="0 0, 10 3.5, 0 7" fill="#333"/>
    </marker>
  </defs>
</svg>