<svg width="1000" height="700" xmlns="http://www.w3.org/2000/svg">
  <defs>
    <style>
      .interface-box { fill: #f0f8ff; stroke: black; stroke-width: 2; }
      .class-box { fill: white; stroke: black; stroke-width: 2; }
      .interface-title { font-family: Arial, sans-serif; font-size: 14px; font-weight: bold; text-anchor: middle; font-style: italic; }
      .class-title { font-family: Arial, sans-serif; font-size: 14px; font-weight: bold; text-anchor: middle; }
      .class-content { font-family: Arial, sans-serif; font-size: 11px; }
      .separator { stroke: black; stroke-width: 1; }
      .implements { stroke: black; stroke-width: 2; fill: none; stroke-dasharray: 5,5; marker-end: url(#triangle); }
      .dependency { stroke: black; stroke-width: 2; fill: none; stroke-dasharray: 3,3; marker-end: url(#arrowhead); }
      .aggregation { stroke: black; stroke-width: 2; fill: none; marker-start: url(#diamond); }
      .stereotype { font-family: Arial, sans-serif; font-size: 10px; font-style: italic; text-anchor: middle; }
    </style>
    <marker id="arrowhead" markerWidth="10" markerHeight="7" refX="9" refY="3.5" orient="auto">
      <polygon points="0 0, 10 3.5, 0 7" fill="black" />
    </marker>
    <marker id="triangle" markerWidth="12" markerHeight="10" refX="10" refY="5" orient="auto">
      <polygon points="0 0, 10 5, 0 10" fill="white" stroke="black" stroke-width="1"/>
    </marker>
    <marker id="diamond" markerWidth="12" markerHeight="8" refX="2" refY="4" orient="auto">
      <polygon points="0 4, 4 0, 8 4, 4 8" fill="white" stroke="black" stroke-width="1"/>
    </marker>
  </defs>
  
  <!-- Background -->
  <rect width="1000" height="700" fill="white"/>
  
  <!-- Title -->
  <text x="500" y="25" font-family="Arial" font-size="16" font-weight="bold" text-anchor="middle">State Pattern Class Diagram</text>
  
  <!-- State Interface -->
  <rect x="400" y="80" width="250" height="100" class="interface-box"/>
  <text x="410" y="100" class="stereotype">&lt;&lt;interface&gt;&gt;</text>
  <text x="525" y="120" class="interface-title">VendingMachineState</text>
  <line x1="400" y1="130" x2="650" y2="130" class="separator"/>
  <text x="410" y="155" class="class-content">+ HandleRequest(): void</text>
  
  <!-- ReadyState Class -->
  <rect x="50" y="250" width="200" height="120" class="class-box"/>
  <text x="150" y="275" class="class-title">ReadyState</text>
  <line x1="50" y1="285" x2="250" y2="285" class="separator"/>
  <line x1="50" y1="295" x2="250" y2="295" class="separator"/>
  <text x="60" y="315" class="class-content">+ HandleRequest(): void</text>
  
  <!-- ProductSelectState Class -->
  <rect x="300" y="250" width="200" height="120" class="class-box"/>
  <text x="400" y="275" class="class-title">ProductSelectState</text>
  <line x1="300" y1="285" x2="500" y2="285" class="separator"/>
  <line x1="300" y1="295" x2="500" y2="295" class="separator"/>
  <text x="310" y="315" class="class-content">+ HandleRequest(): void</text>
  
  <!-- PaymentPendingState Class -->
  <rect x="550" y="250" width="200" height="120" class="class-box"/>
  <text x="650" y="275" class="class-title">PaymentPendingState</text>
  <line x1="550" y1="285" x2="750" y2="285" class="separator"/>
  <line x1="550" y1="295" x2="750" y2="295" class="separator"/>
  <text x="560" y="315" class="class-content">+ HandleRequest(): void</text>
  
  <!-- VendingMachineContext Class -->
  <rect x="350" y="450" width="300" height="140" class="class-box"/>
  <text x="500" y="475" class="class-title">VendingMachineContext</text>
  <line x1="350" y1="485" x2="650" y2="485" class="separator"/>
  <text x="360" y="505" class="class-content">- state: VendingMachineState</text>
  <line x1="350" y1="515" x2="650" y2="515" class="separator"/>
  <text x="360" y="535" class="class-content">+ setState(VendingMachineState): void</text>
  <text x="360" y="555" class="class-content">+ request(): void</text>
  
  <!-- StateEx Class -->
  <rect x="750" y="450" width="150" height="80" class="class-box"/>
  <text x="825" y="475" class="class-title">StateEx</text>
  <line x1="750" y1="485" x2="900" y2="485" class="separator"/>
  <text x="760" y="505" class="class-content">+ main(String[]): void</text>
  
  <!-- Relationships -->
  
  <!-- ReadyState implements VendingMachineState -->
  <line x1="150" y1="250" x2="480" y2="180" class="implements"/>
  <text x="280" y="210" class="class-content" font-size="10">implements</text>
  
  <!-- ProductSelectState implements VendingMachineState -->
  <line x1="400" y1="250" x2="520" y2="180" class="implements"/>
  <text x="445" y="210" class="class-content" font-size="10">implements</text>
  
  <!-- PaymentPendingState implements VendingMachineState -->
  <line x1="650" y1="250" x2="560" y2="180" class="implements"/>
  <text x="620" y="210" class="class-content" font-size="10">implements</text>
  
  <!-- VendingMachineContext aggregates VendingMachineState -->
  <line x1="500" y1="450" x2="525" y2="180" class="aggregation"/>
  <text x="530" y="315" class="class-content" font-size="10">1</text>
  <text x="530" y="400" class="class-content" font-size="10">state</text>
  
  <!-- StateEx uses VendingMachineContext -->
  <line x1="750" y1="490" x2="650" y2="490" class="dependency"/>
  <text x="690" y="485" class="class-content" font-size="10">uses</text>
  
  <!-- StateEx uses concrete states -->
  <line x1="750" y1="470" x2="250" y2="300" class="dependency"/>
  <line x1="780" y1="450" x2="400" y2="370" class="dependency"/>
  <line x1="800" y1="450" x2="650" y2="370" class="dependency"/>
  
  <!-- Pattern role labels -->
  <rect x="50" y="390" width="200" height="30" fill="#ffffcc" stroke="black" stroke-width="1"/>
  <text x="150" y="410" class="class-content" font-weight="bold" text-anchor="middle">Concrete State</text>
  
  <rect x="300" y="390" width="200" height="30" fill="#ffffcc" stroke="black" stroke-width="1"/>
  <text x="400" y="410" class="class-content" font-weight="bold" text-anchor="middle">Concrete State</text>
  
  <rect x="550" y="390" width="200" height="30" fill="#ffffcc" stroke="black" stroke-width="1"/>
  <text x="650" y="410" class="class-content" font-weight="bold" text-anchor="middle">Concrete State</text>
  
  <rect x="400" y="200" width="250" height="30" fill="#ccffcc" stroke="black" stroke-width="1"/>
  <text x="525" y="220" class="class-content" font-weight="bold" text-anchor="middle">State Interface</text>
  
  <rect x="350" y="610" width="300" height="30" fill="#ffcccc" stroke="black" stroke-width="1"/>
  <text x="500" y="630" class="class-content" font-weight="bold" text-anchor="middle">Context</text>
  
  <!-- State Transition Flow -->
  <text x="50" y="660" font-family="Arial" font-size="12" font-weight="bold">State Flow:</text>
  <text x="150" y="660" font-family="Arial" font-size="11">ReadyState → ProductSelectState → PaymentPendingState</text>
  
  <!-- Legend -->
  <text x="50" y="50" font-family="Arial" font-size="12" font-weight="bold">Legend:</text>
  <line x1="50" y1="65" x2="100" y2="65" class="implements"/>
  <text x="110" y="70" class="class-content" font-size="10">Implements</text>
  
  <line x1="180" y1="65" x2="230" y2="65" class="aggregation"/>
  <text x="240" y="70" class="class-content" font-size="10">Aggregation</text>
  
  <line x1="310" y1="65" x2="360" y2="65" class="dependency"/>
  <text x="370" y="70" class="class-content" font-size="10">Dependency</text>
</svg>