<svg width="700" height="500" xmlns="http://www.w3.org/2000/svg" style="background-color: white;">
  <!-- Interface: Shape -->
  <g>
    <rect x="250" y="50" width="200" height="100" fill="#e8f4fd" stroke="#2563eb" stroke-width="2"/>
    <text x="350" y="70" text-anchor="middle" font-family="Arial, sans-serif" font-size="12" font-weight="bold" fill="#1e40af">&lt;&lt;interface&gt;&gt;</text>
    <text x="350" y="85" text-anchor="middle" font-family="Arial, sans-serif" font-size="14" font-weight="bold">Shape</text>
    <line x1="250" y1="95" x2="450" y2="95" stroke="#2563eb" stroke-width="1"/>
    <text x="260" y="115" font-family="Arial, sans-serif" font-size="11">+ clone(): Shape</text>
    <text x="260" y="135" font-family="Arial, sans-serif" font-size="11">+ draw(): void</text>
  </g>

  <!-- Class: Rectangle -->
  <g>
    <rect x="200" y="230" width="300" height="150" fill="#f0f9ff" stroke="#0369a1" stroke-width="2"/>
    <text x="350" y="250" text-anchor="middle" font-family="Arial, sans-serif" font-size="14" font-weight="bold">Rectangle</text>
    <line x1="200" y1="260" x2="500" y2="260" stroke="#0369a1" stroke-width="1"/>
    
    <!-- Attributes -->
    <text x="210" y="280" font-family="Arial, sans-serif" font-size="11">- width: int</text>
    <text x="210" y="300" font-family="Arial, sans-serif" font-size="11">- height: int</text>
    
    <line x1="200" y1="310" x2="500" y2="310" stroke="#0369a1" stroke-width="1"/>
    
    <!-- Methods -->
    <text x="210" y="330" font-family="Arial, sans-serif" font-size="11">+ Rectangle(int, int)</text>
    <text x="210" y="350" font-family="Arial, sans-serif" font-size="11">+ clone(): Shape</text>
    <text x="210" y="370" font-family="Arial, sans-serif" font-size="11">+ draw(): void</text>
  </g>

  <!-- Class: PrototypeEx -->
  <g>
    <rect x="50" y="230" width="120" height="80" fill="#f3f4f6" stroke="#6b7280" stroke-width="2"/>
    <text x="110" y="250" text-anchor="middle" font-family="Arial, sans-serif" font-size="14" font-weight="bold">PrototypeEx</text>
    <line x1="50" y1="260" x2="170" y2="260" stroke="#6b7280" stroke-width="1"/>
    <text x="60" y="285" font-family="Arial, sans-serif" font-size="11">+ main(String[]): void</text>
  </g>

  <!-- Inheritance arrow (implements) -->
  <defs>
    <marker id="triangle" markerWidth="10" markerHeight="10" refX="9" refY="3" orient="auto" markerUnits="strokeWidth">
      <triangle points="0,0 0,6 9,3" fill="white" stroke="#2563eb" stroke-width="1"/>
    </marker>
    <marker id="arrow" markerWidth="10" markerHeight="10" refX="9" refY="3" orient="auto" markerUnits="strokeWidth">
      <triangle points="0,0 0,6 9,3" fill="#059669"/>
    </marker>
  </defs>
  
  <!-- Rectangle implements Shape -->
  <line x1="350" y1="230" x2="350" y2="150" stroke="#2563eb" stroke-width="2" stroke-dasharray="5,5" marker-end="url(#triangle)"/>

  <!-- Dependency arrow - PrototypeEx uses Shape -->
  <line x1="170" y1="260" x2="200" y2="260" stroke="#059669" stroke-width="2" stroke-dasharray="3,3" marker-end="url(#arrow)"/>

  <!-- Self-relationship for clone operation -->
  <path d="M 500 350 Q 550 350 550 300 Q 550 250 500 280" stroke="#dc2626" stroke-width="2" fill="none" marker-end="url(#arrow)"/>
  <text x="570" y="300" font-family="Arial, sans-serif" font-size="9" fill="#dc2626">creates copy</text>

  <!-- Labels for relationships -->
  <text x="360" y="190" font-family="Arial, sans-serif" font-size="9" fill="#2563eb">implements</text>
  <text x="175" y="250" font-family="Arial, sans-serif" font-size="9" fill="#059669">uses</text>

  <!-- Legend -->
  <g>
    <text x="50" y="420" font-family="Arial, sans-serif" font-size="12" font-weight="bold">Legend:</text>
    <line x1="50" y1="435" x2="80" y2="435" stroke="#2563eb" stroke-width="2" stroke-dasharray="5,5"/>
    <text x="90" y="440" font-family="Arial, sans-serif" font-size="10">implements</text>
    <line x1="50" y1="450" x2="80" y2="450" stroke="#059669" stroke-width="2" stroke-dasharray="3,3"/>
    <text x="90" y="455" font-family="Arial, sans-serif" font-size="10">uses/depends on</text>
    <path d="M 50 465 Q 70 465 70 470 Q 70 475 50 475" stroke="#dc2626" stroke-width="2" fill="none"/>
    <text x="90" y="470" font-family="Arial, sans-serif" font-size="10">creates copy</text>
  </g>

  <!-- Pattern Description -->
  <g>
    <rect x="450" y="420" width="230" height="60" fill="#fef3c7" stroke="#d97706" stroke-width="1" rx="5"/>
    <text x="460" y="440" font-family="Arial, sans-serif" font-size="12" font-weight="bold">Prototype Pattern:</text>
    <text x="460" y="455" font-family="Arial, sans-serif" font-size="10">Creates objects by cloning existing instances</text>
    <text x="460" y="470" font-family="Arial, sans-serif" font-size="10">instead of using constructors directly</text>
  </g>
</svg>