<svg width="800" height="600" xmlns="http://www.w3.org/2000/svg">
  <!-- White background -->
  <rect width="800" height="600" fill="white"/>
  
  <!-- Title -->
  <text x="400" y="30" text-anchor="middle" font-family="Arial, sans-serif" font-size="18" font-weight="bold">Interpreter Pattern Class Diagram</text>

  <!-- Expression Interface -->
  <rect x="320" y="70" width="160" height="80" fill="#e8f4fd" stroke="#2563eb" stroke-width="2"/>
  <text x="400" y="95" text-anchor="middle" font-family="Arial, sans-serif" font-size="14" font-weight="bold">&lt;&lt;interface&gt;&gt;</text>
  <text x="400" y="115" text-anchor="middle" font-family="Arial, sans-serif" font-size="16" font-weight="bold">Expression</text>
  <line x1="320" y1="125" x2="480" y2="125" stroke="#2563eb" stroke-width="1"/>
  <text x="400" y="140" text-anchor="middle" font-family="Arial, sans-serif" font-size="12">+ interpret(): int</text>

  <!-- NumberExpression (Terminal Expression) -->
  <rect x="50" y="220" width="200" height="120" fill="#dcfce7" stroke="#16a34a" stroke-width="2"/>
  <text x="150" y="245" text-anchor="middle" font-family="Arial, sans-serif" font-size="16" font-weight="bold">NumberExpression</text>
  <text x="150" y="265" text-anchor="middle" font-family="Arial, sans-serif" font-size="12" font-style="italic">(Terminal Expression)</text>
  <line x1="50" y1="275" x2="250" y2="275" stroke="#16a34a" stroke-width="1"/>
  <text x="150" y="295" text-anchor="middle" font-family="Arial, sans-serif" font-size="12">- number: int</text>
  <line x1="50" y1="305" x2="250" y2="305" stroke="#16a34a" stroke-width="1"/>
  <text x="150" y="325" text-anchor="middle" font-family="Arial, sans-serif" font-size="12">+ NumberExpression(int)</text>
  <text x="150" y="345" text-anchor="middle" font-family="Arial, sans-serif" font-size="12">+ interpret(): int</text>

  <!-- AddExpression (Non-Terminal Expression) -->
  <rect x="300" y="220" width="200" height="140" fill="#fef3c7" stroke="#d97706" stroke-width="2"/>
  <text x="400" y="245" text-anchor="middle" font-family="Arial, sans-serif" font-size="16" font-weight="bold">AddExpression</text>
  <text x="400" y="265" text-anchor="middle" font-family="Arial, sans-serif" font-size="12" font-style="italic">(Non-Terminal Expression)</text>
  <line x1="300" y1="275" x2="500" y2="275" stroke="#d97706" stroke-width="1"/>
  <text x="400" y="295" text-anchor="middle" font-family="Arial, sans-serif" font-size="12">- leftExpression: Expression</text>
  <text x="400" y="315" text-anchor="middle" font-family="Arial, sans-serif" font-size="12">- rightExpression: Expression</text>
  <line x1="300" y1="325" x2="500" y2="325" stroke="#d97706" stroke-width="1"/>
  <text x="400" y="345" text-anchor="middle" font-family="Arial, sans-serif" font-size="12">+ AddExpression(Expression,</text>
  <text x="400" y="360" text-anchor="middle" font-family="Arial, sans-serif" font-size="12">                Expression)</text>
  <text x="400" y="380" text-anchor="middle" font-family="Arial, sans-serif" font-size="12">+ interpret(): int</text>

  <!-- SubtractExpression (Non-Terminal Expression) -->
  <rect x="550" y="220" width="200" height="140" fill="#fce7f3" stroke="#db2777" stroke-width="2"/>
  <text x="650" y="245" text-anchor="middle" font-family="Arial, sans-serif" font-size="16" font-weight="bold">SubtractExpression</text>
  <text x="650" y="265" text-anchor="middle" font-family="Arial, sans-serif" font-size="12" font-style="italic">(Non-Terminal Expression)</text>
  <line x1="550" y1="275" x2="750" y2="275" stroke="#db2777" stroke-width="1"/>
  <text x="650" y="295" text-anchor="middle" font-family="Arial, sans-serif" font-size="12">- leftExpression: Expression</text>
  <text x="650" y="315" text-anchor="middle" font-family="Arial, sans-serif" font-size="12">- rightExpression: Expression</text>
  <line x1="550" y1="325" x2="750" y2="325" stroke="#db2777" stroke-width="1"/>
  <text x="650" y="345" text-anchor="middle" font-family="Arial, sans-serif" font-size="12">+ SubtractExpression(Expression,</text>
  <text x="650" y="360" text-anchor="middle" font-family="Arial, sans-serif" font-size="12">                     Expression)</text>
  <text x="650" y="380" text-anchor="middle" font-family="Arial, sans-serif" font-size="12">+ interpret(): int</text>

  <!-- Client -->
  <rect x="320" y="420" width="160" height="80" fill="#f3f4f6" stroke="#6b7280" stroke-width="2"/>
  <text x="400" y="445" text-anchor="middle" font-family="Arial, sans-serif" font-size="16" font-weight="bold">InterpreterEx</text>
  <text x="400" y="465" text-anchor="middle" font-family="Arial, sans-serif" font-size="12" font-style="italic">(Client)</text>
  <line x1="320" y1="475" x2="480" y2="475" stroke="#6b7280" stroke-width="1"/>
  <text x="400" y="490" text-anchor="middle" font-family="Arial, sans-serif" font-size="12">+ main(String[]): void</text>

  <!-- Inheritance arrows (implements) -->
  <!-- NumberExpression implements Expression -->
  <line x1="150" y1="220" x2="370" y2="150" stroke="#2563eb" stroke-width="2" stroke-dasharray="5,5" marker-end="url(#implementsArrow)"/>
  
  <!-- AddExpression implements Expression -->
  <line x1="400" y1="220" x2="400" y2="150" stroke="#2563eb" stroke-width="2" stroke-dasharray="5,5" marker-end="url(#implementsArrow)"/>
  
  <!-- SubtractExpression implements Expression -->
  <line x1="650" y1="220" x2="430" y2="150" stroke="#2563eb" stroke-width="2" stroke-dasharray="5,5" marker-end="url(#implementsArrow)"/>

  <!-- Composition arrows (Non-terminal expressions contain other expressions) -->
  <!-- AddExpression contains Expressions -->
  <line x1="350" y1="220" x2="350" y2="180" stroke="#374151" stroke-width="2"/>
  <line x1="350" y1="180" x2="380" y2="180" stroke="#374151" stroke-width="2"/>
  <line x1="380" y1="180" x2="380" y2="150" stroke="#374151" stroke-width="2" marker-end="url(#compositionArrow)"/>
  <text x="320" y="175" font-family="Arial, sans-serif" font-size="10">2</text>

  <!-- SubtractExpression contains Expressions -->
  <line x1="600" y1="220" x2="600" y2="180" stroke="#374151" stroke-width="2"/>
  <line x1="600" y1="180" x2="420" y2="180" stroke="#374151" stroke-width="2"/>
  <line x1="420" y1="180" x2="420" y2="150" stroke="#374151" stroke-width="2" marker-end="url(#compositionArrow)"/>
  <text x="580" y="175" font-family="Arial, sans-serif" font-size="10">2</text>

  <!-- Client uses Expression -->
  <line x1="400" y1="420" x2="400" y2="380" stroke="#374151" stroke-width="2" marker-end="url(#associationArrow)"/>
  <line x1="400" y1="380" x2="400" y2="360" stroke="#374151" stroke-width="2"/>
  <line x1="400" y1="360" x2="400" y2="150" stroke="#374151" stroke-width="2" stroke-dasharray="3,3"/>
  <text x="410" y="285" font-family="Arial, sans-serif" font-size="10">uses</text>

  <!-- Arrow markers -->
  <defs>
    <marker id="implementsArrow" markerWidth="10" markerHeight="10" refX="9" refY="3" orient="auto" markerUnits="strokeWidth">
      <polygon points="0,0 0,6 9,3" fill="white" stroke="#2563eb" stroke-width="1"/>
    </marker>
    <marker id="compositionArrow" markerWidth="10" markerHeight="10" refX="9" refY="3" orient="auto" markerUnits="strokeWidth">
      <polygon points="0,0 4,3 0,6 9,3" fill="#374151"/>
    </marker>
    <marker id="associationArrow" markerWidth="10" markerHeight="10" refX="9" refY="3" orient="auto" markerUnits="strokeWidth">
      <polygon points="0,0 0,6 9,3" fill="#374151"/>
    </marker>
  </defs>

  <!-- Legend -->
  <rect x="50" y="450" width="220" height="120" fill="white" stroke="#6b7280" stroke-width="1"/>
  <text x="160" y="470" text-anchor="middle" font-family="Arial, sans-serif" font-size="14" font-weight="bold">Legend</text>
  
  <line x1="60" y1="485" x2="90" y2="485" stroke="#2563eb" stroke-width="2" stroke-dasharray="5,5"/>
  <polygon points="90,482 90,488 96,485" fill="white" stroke="#2563eb" stroke-width="1"/>
  <text x="110" y="490" font-family="Arial, sans-serif" font-size="11">implements</text>
  
  <line x1="60" y1="505" x2="90" y2="505" stroke="#374151" stroke-width="2"/>
  <polygon points="86,502 90,505 86,508 93,505" fill="#374151"/>
  <text x="110" y="510" font-family="Arial, sans-serif" font-size="11">composition</text>

  <line x1="60" y1="525" x2="90" y2="525" stroke="#374151" stroke-width="2"/>
  <polygon points="90,522 90,528 96,525" fill="#374151"/>
  <text x="110" y="530" font-family="Arial, sans-serif" font-size="11">association</text>

  <rect x="60" y="540" width="15" height="15" fill="#dcfce7" stroke="#16a34a" stroke-width="1"/>
  <text x="85" y="552" font-family="Arial, sans-serif" font-size="11">Terminal Expression</text>

  <rect x="60" y="558" width="15" height="15" fill="#fef3c7" stroke="#d97706" stroke-width="1"/>
  <text x="85" y="570" font-family="Arial, sans-serif" font-size="11">Non-Terminal Expression</text>
</svg>