<svg width="1000" height="800" xmlns="http://www.w3.org/2000/svg">
  <!-- White background -->
  <rect width="1000" height="800" fill="white" stroke="none"/>
  
  <!-- Title -->
  <text x="500" y="30" text-anchor="middle" font-family="Arial" font-size="18" font-weight="bold">Sequence Diagram: Expression Evaluation</text>
  <text x="500" y="50" text-anchor="middle" font-family="Arial" font-size="14">Example: (3 + 2) * 4</text>
  
  <!-- Actors/Objects -->
  <g id="actors">
    <!-- Client -->
    <rect x="50" y="80" width="100" height="40" fill="#e6f3ff" stroke="black" stroke-width="1"/>
    <text x="100" y="105" text-anchor="middle" font-family="Arial" font-size="12" font-weight="bold">Client</text>
    
    <!-- EvalVisitor -->
    <rect x="200" y="80" width="120" height="40" fill="#ffe6e6" stroke="black" stroke-width="1"/>
    <text x="260" y="105" text-anchor="middle" font-family="Arial" font-size="12" font-weight="bold">EvalVisitor</text>
    
    <!-- MulExpr -->
    <rect x="370" y="80" width="100" height="40" fill="#e6ffe6" stroke="black" stroke-width="1"/>
    <text x="420" y="105" text-anchor="middle" font-family="Arial" font-size="12" font-weight="bold">MulExpr</text>
    
    <!-- AddExpr -->
    <rect x="520" y="80" width="100" height="40" fill="#e6ffe6" stroke="black" stroke-width="1"/>
    <text x="570" y="105" text-anchor="middle" font-family="Arial" font-size="12" font-weight="bold">AddExpr</text>
    
    <!-- NumberExpr(3) -->
    <rect x="670" y="80" width="100" height="40" fill="#e6ffe6" stroke="black" stroke-width="1"/>
    <text x="720" y="95" text-anchor="middle" font-family="Arial" font-size="12" font-weight="bold">NumberExpr</text>
    <text x="720" y="110" text-anchor="middle" font-family="Arial" font-size="10">(value: 3)</text>
    
    <!-- NumberExpr(2) -->
    <rect x="820" y="80" width="100" height="40" fill="#e6ffe6" stroke="black" stroke-width="1"/>
    <text x="870" y="95" text-anchor="middle" font-family="Arial" font-size="12" font-weight="bold">NumberExpr</text>
    <text x="870" y="110" text-anchor="middle" font-family="Arial" font-size="10">(value: 2)</text>
    
    <!-- NumberExpr(4) - positioned below for clarity -->
    <rect x="670" y="140" width="100" height="40" fill="#e6ffe6" stroke="black" stroke-width="1"/>
    <text x="720" y="155" text-anchor="middle" font-family="Arial" font-size="12" font-weight="bold">NumberExpr</text>
    <text x="720" y="170" text-anchor="middle" font-family="Arial" font-size="10">(value: 4)</text>
  </g>
  
  <!-- Lifelines -->
  <g id="lifelines" stroke="black" stroke-width="1" stroke-dasharray="5,5">
    <line x1="100" y1="120" x2="100" y2="750"/>
    <line x1="260" y1="120" x2="260" y2="750"/>
    <line x1="420" y1="120" x2="420" y2="750"/>
    <line x1="570" y1="120" x2="570" y2="750"/>
    <line x1="720" y1="120" x2="720" y2="750"/>
    <line x1="870" y1="120" x2="870" y2="750"/>
    <line x1="720" y1="180" x2="720" y2="750"/>
  </g>
  
  <!-- Activation boxes -->
  <g id="activations" fill="#f0f0f0" stroke="black" stroke-width="1">
    <!-- Client activation -->
    <rect x="95" y="200" width="10" height="530"/>
    
    <!-- EvalVisitor activations -->
    <rect x="255" y="220" width="10" height="500"/>
    
    <!-- MulExpr activation -->
    <rect x="415" y="240" width="10" height="60"/>
    <rect x="415" y="660" width="10" height="40"/>
    
    <!-- AddExpr activation -->
    <rect x="565" y="320" width="10" height="60"/>
    <rect x="565" y="580" width="10" height="40"/>
    
    <!-- NumberExpr activations -->
    <rect x="715" y="400" width="10" height="40"/>
    <rect x="865" y="480" width="10" height="40"/>
    <rect x="715" y="680" width="10" height="40"/>
  </g>
  
  <!-- Messages -->
  <g id="messages" stroke="black" stroke-width="1" fill="black">
    
    <!-- 1. Client creates EvalVisitor -->
    <line x1="100" y1="210" x2="260" y2="210" marker-end="url(#arrow)"/>
    <text x="180" y="205" text-anchor="middle" font-family="Arial" font-size="10">1: new EvalVisitor()</text>
    
    <!-- 2. Client calls accept on root expression -->
    <line x1="100" y1="230" x2="420" y2="230" marker-end="url(#arrow)"/>
    <text x="260" y="225" text-anchor="middle" font-family="Arial" font-size="10">2: accept(visitor)</text>
    
    <!-- 3. MulExpr calls visit on visitor -->
    <line x1="420" y1="250" x2="260" y2="250" marker-end="url(#arrow)"/>
    <text x="340" y="245" text-anchor="middle" font-family="Arial" font-size="10">3: visit(this)</text>
    
    <!-- 4. EvalVisitor calls accept on left operand (AddExpr) -->
    <line x1="260" y1="270" x2="420" y2="270" marker-end="url(#arrow)"/>
    <text x="340" y="265" text-anchor="middle" font-family="Arial" font-size="10">4: getLeft()</text>
    
    <!-- 5. Return AddExpr -->
    <line x1="420" y1="290" x2="260" y2="290" marker-end="url(#arrow)" stroke-dasharray="5,5"/>
    <text x="340" y="285" text-anchor="middle" font-family="Arial" font-size="10">5: return AddExpr</text>
    
    <!-- 6. EvalVisitor calls accept on AddExpr -->
    <line x1="260" y1="310" x2="570" y2="310" marker-end="url(#arrow)"/>
    <text x="415" y="305" text-anchor="middle" font-family="Arial" font-size="10">6: accept(this)</text>
    
    <!-- 7. AddExpr calls visit on visitor -->
    <line x1="570" y1="330" x2="260" y2="330" marker-end="url(#arrow)"/>
    <text x="415" y="325" text-anchor="middle" font-family="Arial" font-size="10">7: visit(this)</text>
    
    <!-- 8. EvalVisitor gets left operand of AddExpr -->
    <line x1="260" y1="350" x2="570" y2="350" marker-end="url(#arrow)"/>
    <text x="415" y="345" text-anchor="middle" font-family="Arial" font-size="10">8: getLeft()</text>
    
    <!-- 9. Return NumberExpr(3) -->
    <line x1="570" y1="370" x2="260" y2="370" marker-end="url(#arrow)" stroke-dasharray="5,5"/>
    <text x="415" y="365" text-anchor="middle" font-family="Arial" font-size="10">9: return NumberExpr(3)</text>
    
    <!-- 10. EvalVisitor calls accept on NumberExpr(3) -->
    <line x1="260" y1="390" x2="720" y2="390" marker-end="url(#arrow)"/>
    <text x="490" y="385" text-anchor="middle" font-family="Arial" font-size="10">10: accept(this)</text>
    
    <!-- 11. NumberExpr(3) calls visit -->
    <line x1="720" y1="410" x2="260" y2="410" marker-end="url(#arrow)"/>
    <text x="490" y="405" text-anchor="middle" font-family="Arial" font-size="10">11: visit(this)</text>
    
    <!-- 12. EvalVisitor returns 3 -->
    <line x1="260" y1="430" x2="720" y2="430" marker-end="url(#arrow)" stroke-dasharray="5,5"/>
    <text x="490" y="425" text-anchor="middle" font-family="Arial" font-size="10">12: return 3</text>
    
    <!-- 13. EvalVisitor gets right operand of AddExpr -->
    <line x1="260" y1="450" x2="570" y2="450" marker-end="url(#arrow)"/>
    <text x="415" y="445" text-anchor="middle" font-family="Arial" font-size="10">13: getRight()</text>
    
    <!-- 14. Return NumberExpr(2) -->
    <line x1="570" y1="470" x2="260" y2="470" marker-end="url(#arrow)" stroke-dasharray="5,5"/>
    <text x="415" y="465" text-anchor="middle" font-family="Arial" font-size="10">14: return NumberExpr(2)</text>
    
    <!-- 15. EvalVisitor calls accept on NumberExpr(2) -->
    <line x1="260" y1="490" x2="870" y2="490" marker-end="url(#arrow)"/>
    <text x="565" y="485" text-anchor="middle" font-family="Arial" font-size="10">15: accept(this)</text>
    
    <!-- 16. NumberExpr(2) calls visit -->
    <line x1="870" y1="510" x2="260" y2="510" marker-end="url(#arrow)"/>
    <text x="565" y="505" text-anchor="middle" font-family="Arial" font-size="10">16: visit(this)</text>
    
    <!-- 17. EvalVisitor returns 2 -->
    <line x1="260" y1="530" x2="870" y2="530" marker-end="url(#arrow)" stroke-dasharray="5,5"/>
    <text x="565" y="525" text-anchor="middle" font-family="Arial" font-size="10">17: return 2</text>
    
    <!-- 18. EvalVisitor returns 5 (3+2) to AddExpr -->
    <line x1="260" y1="550" x2="570" y2="550" marker-end="url(#arrow)" stroke-dasharray="5,5"/>
    <text x="415" y="545" text-anchor="middle" font-family="Arial" font-size="10">18: return 5</text>
    
    <!-- 19. AddExpr returns 5 -->
    <line x1="570" y1="570" x2="260" y2="570" marker-end="url(#arrow)" stroke-dasharray="5,5"/>
    <text x="415" y="565" text-anchor="middle" font-family="Arial" font-size="10">19: return 5</text>
    
    <!-- 20. EvalVisitor gets right operand of MulExpr -->
    <line x1="260" y1="590" x2="420" y2="590" marker-end="url(#arrow)"/>
    <text x="340" y="585" text-anchor="middle" font-family="Arial" font-size="10">20: getRight()</text>
    
    <!-- 21. Return NumberExpr(4) -->
    <line x1="420" y1="610" x2="260" y2="610" marker-end="url(#arrow)" stroke-dasharray="5,5"/>
    <text x="340" y="605" text-anchor="middle" font-family="Arial" font-size="10">21: return NumberExpr(4)</text>
    
    <!-- 22. EvalVisitor calls accept on NumberExpr(4) -->
    <line x1="260" y1="630" x2="720" y2="630" marker-end="url(#arrow)"/>
    <text x="490" y="625" text-anchor="middle" font-family="Arial" font-size="10">22: accept(this)</text>
    
    <!-- 23. NumberExpr(4) calls visit -->
    <line x1="720" y1="650" x2="420" y2="650" marker-end="url(#arrow)"/>
    <text x="570" y="645" text-anchor="middle" font-family="Arial" font-size="10">23: visit(this)</text>
    
    <!-- 24. MulExpr forwards to EvalVisitor -->
    <line x1="420" y1="670" x2="260" y2="670" marker-end="url(#arrow)"/>
    <text x="340" y="665" text-anchor="middle" font-family="Arial" font-size="10">24: visit(NumberExpr(4))</text>
    
    <!-- 25. EvalVisitor returns 4 -->
    <line x1="260" y1="690" x2="720" y2="690" marker-end="url(#arrow)" stroke-dasharray="5,5"/>
    <text x="490" y="685" text-anchor="middle" font-family="Arial" font-size="10">25: return 4</text>
    
    <!-- 26. EvalVisitor returns 20 (5*4) -->
    <line x1="260" y1="710" x2="420" y2="710" marker-end="url(#arrow)" stroke-dasharray="5,5"/>
    <text x="340" y="705" text-anchor="middle" font-family="Arial" font-size="10">26: return 20</text>
    
    <!-- 27. Final result to client -->
    <line x1="420" y1="730" x2="100" y2="730" marker-end="url(#arrow)" stroke-dasharray="5,5"/>
    <text x="260" y="725" text-anchor="middle" font-family="Arial" font-size="10">27: return 20</text>
  </g>
  
  <!-- Arrow marker -->
  <defs>
    <marker id="arrow" markerWidth="10" markerHeight="10" refX="9" refY="3" orient="auto" markerUnits="strokeWidth">
      <path d="M0,0 L0,6 L9,3 z" fill="black"/>
    </marker>
  </defs>
  
  <!-- Legend -->
  <g id="legend">
    <rect x="50" y="760" width="300" height="35" fill="none" stroke="black" stroke-width="1"/>
    <text x="200" y="775" text-anchor="middle" font-family="Arial" font-size="12" font-weight="bold">Legend</text>
    <line x1="60" y1="785" x2="90" y2="785" stroke="black" stroke-width="1" marker-end="url(#arrow)"/>
    <text x="100" y="789" font-family="Arial" font-size="10">Method call</text>
    <line x1="170" y1="785" x2="200" y2="785" stroke="black" stroke-width="1" stroke-dasharray="5,5" marker-end="url(#arrow)"/>
    <text x="210" y="789" font-family="Arial" font-size="10">Return value</text>
  </g>
  
  <!-- Expression tree visualization -->
  <g id="expression-tree">
    <text x="400" y="770" text-anchor="middle" font-family="Arial" font-size="12" font-weight="bold">Expression Tree: (3 + 2) * 4</text>
    
    <!-- Tree structure -->
    <circle cx="450" cy="785" r="15" fill="#ffe6e6" stroke="black"/>
    <text x="450" y="790" text-anchor="middle" font-family="Arial" font-size="10">*</text>
    
    <circle cx="400" cy="815" r="15" fill="#e6ffe6" stroke="black"/>
    <text x="400" y="820" text-anchor="middle" font-family="Arial" font-size="10">+</text>
    
    <circle cx="500" cy="815" r="15" fill="#e6ffe6" stroke="black"/>
    <text x="500" y="820" text-anchor="middle" font-family="Arial" font-size="10">4</text>
    
    <circle cx="375" cy="845" r="15" fill="#e6ffe6" stroke="black"/>
    <text x="375" y="850" text-anchor="middle" font-family="Arial" font-size="10">3</text>
    
    <circle cx="425" cy="845" r="15" fill="#e6ffe6" stroke="black"/>
    <text x="425" y="850" text-anchor="middle" font-family="Arial" font-size="10">2</text>
    
    <!-- Tree connections -->
    <line x1="440" y1="795" x2="410" y2="805" stroke="black"/>
    <line x1="460" y1="795" x2="490" y2="805" stroke="black"/>
    <line x1="390" y1="825" x2="380" y2="835" stroke="black"/>
    <line x1="410" y1="825" x2="420" y2="835" stroke="black"/>
  </g>
</svg>